STARTFONT 2.1
FONT --Tms Rmn-Regular-R-Medium--25-180-120-120-P-181-IBM-UGL
SIZE 18 120 120
FONTBOUNDINGBOX 33 33 0 -7
METRICSSET 2
STARTPROPERTIES 28
FONT_ASCENT 19
FONT_DESCENT 6
PIXEL_SIZE 25
RESOLUTION_X 120
RESOLUTION_Y 120
POINT_SIZE 180
FACE_NAME "Tms Rmn"
FOUNDRY ""
FAMILY_NAME "Tms Rmn"
WEIGHT_NAME "Regular"
RELATIVE_WEIGHT 50
SLANT "R"
SPACING "P"
SETWIDTH_NAME "Medium"
RELATIVE_SETWIDTH 50
ADD_STYLE_NAME ""
AVERAGE_WIDTH 181
UNDERLINE_POSITION 2
UNDERLINE_THICKNESS 2
SUPERSCRIPT_SIZE 18
SUBSCRIPT_SIZE 18
SUPERSCRIPT_X 0
SUPERSCRIPT_Y 12
SUBSCRIPT_X 0
SUBSCRIPT_Y 13
DEFAULT_CHAR 32
CHARSET_REGISTRY "IBM"
CHARSET_ENCODING "UGL"
ENDPROPERTIES
CHARS 382
STARTCHAR smileface
ENCODING 1
SWIDTH 867 0
DWIDTH 26 0
BBX 21 21 3 0
VVECTOR 14 26
SWIDTH1 0 -1100
DWIDTH1 0 -33
BITMAP 
00F800
07FF00
0E0380
1800C0
300060
618C30
618C30
418C10
C80098
D800D8
DC01D8
D40158
C60318
430610
61FC30
60F830
300060
1800C0
0E0380
07FF00
00F800
ENDCHAR
STARTCHAR invsmileface
ENCODING 2
SWIDTH 867 0
DWIDTH 26 0
BBX 21 21 3 0
VVECTOR 14 26
SWIDTH1 0 -1100
DWIDTH1 0 -33
BITMAP 
00F800
07FF00
0FFF80
1FFFC0
3E73E0
7E73F0
7E73F0
7FFFF0
F7FF78
E7FF38
D7FF58
F3FE78
FBFEF8
78F8F0
7C01F0
7F07F0
3FFFE0
1FFFC0
0FFF80
07FF00
00F800
ENDCHAR
STARTCHAR heart
ENCODING 3
SWIDTH 967 0
DWIDTH 29 0
BBX 21 22 4 -1
VVECTOR 15 26
SWIDTH1 0 -1100
DWIDTH1 0 -33
BITMAP 
1E03C0
7F07F0
7F8FF0
FF8FF8
FFDFF8
FFFFF8
FFFFF8
FFFFF8
7FFFF0
7FFFF0
3FFFE0
3FFFE0
1FFFC0
0FFF80
07FF00
03FE00
03FE00
01FC00
00F800
007000
007000
002000
ENDCHAR
STARTCHAR diamond
ENCODING 4
SWIDTH 967 0
DWIDTH 29 0
BBX 19 23 5 -1
VVECTOR 15 26
SWIDTH1 0 -1100
DWIDTH1 0 -33
BITMAP 
004000
00E000
01F000
03F800
03F800
07FC00
0FFE00
1FFF00
3FFF80
3FFF80
7FFFC0
FFFFE0
7FFFC0
3FFF80
3FFF80
1FFF00
0FFE00
07FC00
03F800
03F800
01F000
00E000
004000
ENDCHAR
STARTCHAR club
ENCODING 5
SWIDTH 967 0
DWIDTH 29 0
BBX 24 22 3 -1
VVECTOR 16 26
SWIDTH1 0 -1100
DWIDTH1 0 -33
BITMAP 
007E00
01FF80
01FF80
03FFC0
03FFC0
03FFC0
01FF80
00FF00
3C7E3C
7F3CFE
7FFFFE
FFFFFF
FFFFFF
FFFFFF
FFFFFF
FF99FF
7F18FE
7E187E
3C183C
001800
003C00
007E00
ENDCHAR
STARTCHAR spade
ENCODING 6
SWIDTH 967 0
DWIDTH 29 0
BBX 21 23 4 -1
VVECTOR 15 26
SWIDTH1 0 -1100
DWIDTH1 0 -33
BITMAP 
002000
007000
007000
00F800
01FC00
01FC00
03FE00
07FF00
0FFF80
1FFFC0
1FFFC0
3FFFE0
7FFFF0
7FFFF0
FFFFF8
FFFFF8
FFAFF8
FF27F8
FF27F8
7E23F0
3C21E0
007000
00F800
ENDCHAR
STARTCHAR bullet
ENCODING 7
SWIDTH 700 0
DWIDTH 21 0
BBX 15 15 3 3
VVECTOR 11 26
SWIDTH1 0 -1100
DWIDTH1 0 -33
BITMAP 
07C0
1FF0
3FF8
7FFC
7FFC
FFFE
FFFE
FFFE
FFFE
FFFE
7FFC
7FFC
3FF8
1FF0
07C0
ENDCHAR
STARTCHAR invbullet
ENCODING 8
SWIDTH 967 0
DWIDTH 29 0
BBX 29 30 0 -7
VVECTOR 15 26
SWIDTH1 0 -1100
DWIDTH1 0 -33
BITMAP 
FFFFFFF8
FFFFFFF8
FFFFFFF8
FFFFFFF8
FFFFFFF8
FFFFFFF8
FFFFFFF8
FFF07FF8
FFC01FF8
FF800FF8
FF0007F8
FF0007F8
FE0003F8
FE0003F8
FE0003F8
FE0003F8
FE0003F8
FF0007F8
FF0007F8
FF800FF8
FFC01FF8
FFF07FF8
FFFFFFF8
FFFFFFF8
FFFFFFF8
FFFFFFF8
FFFFFFF8
FFFFFFF8
FFFFFFF8
FFFFFFF8
ENDCHAR
STARTCHAR circle
ENCODING 9
SWIDTH 767 0
DWIDTH 23 0
BBX 21 21 1 -2
VVECTOR 12 26
SWIDTH1 0 -1100
DWIDTH1 0 -33
BITMAP 
00F800
07FF00
0F0780
1C01C0
300060
700070
600030
600030
C00018
C00018
C00018
C00018
C00018
600030
600030
700070
300060
1C01C0
0F0780
07FF00
00F800
ENDCHAR
STARTCHAR invcircle
ENCODING 10
SWIDTH 967 0
DWIDTH 29 0
BBX 29 30 0 -7
VVECTOR 15 26
SWIDTH1 0 -1100
DWIDTH1 0 -33
BITMAP 
FFFFFFF8
FFFFFFF8
FFFFFFF8
FFFFFFF8
FFF07FF8
FF800FF8
FF0F87F8
FE3FE3F8
FCFFF9F8
F8FFF8F8
F9FFFCF8
F9FFFCF8
F3FFFE78
F3FFFE78
F3FFFE78
F3FFFE78
F3FFFE78
F9FFFCF8
F9FFFCF8
F8FFF8F8
FCFFF9F8
FE3FE3F8
FF0F87F8
FF800FF8
FFF07FF8
FFFFFFF8
FFFFFFF8
FFFFFFF8
FFFFFFF8
FFFFFFF8
ENDCHAR
STARTCHAR male
ENCODING 11
SWIDTH 833 0
DWIDTH 25 0
BBX 17 23 4 -1
VVECTOR 13 26
SWIDTH1 0 -1100
DWIDTH1 0 -33
BITMAP 
000C00
007C00
03FE00
039E00
001B00
003300
003180
006180
006000
07E000
1FE000
387000
601800
601800
C00C00
C00C00
C00C00
C00C00
601800
601800
387000
1FE000
078000
ENDCHAR
STARTCHAR female
ENCODING 12
SWIDTH 833 0
DWIDTH 25 0
BBX 14 23 6 -1
VVECTOR 14 26
SWIDTH1 0 -1100
DWIDTH1 0 -33
BITMAP 
0780
1FE0
3870
6018
6018
C00C
C00C
C00C
C00C
6018
6018
3870
1FE0
0780
0300
0300
0300
3FF0
3FF0
0300
0300
0300
0300
ENDCHAR
STARTCHAR musicalnote
ENCODING 13
SWIDTH 533 0
DWIDTH 16 0
BBX 13 23 1 -1
VVECTOR 7 26
SWIDTH1 0 -1100
DWIDTH1 0 -33
BITMAP 
0100
0100
0100
0180
0180
01C0
01C0
0160
0130
0110
0118
0108
0108
0108
0108
0118
1F10
7F00
7F00
FF00
FE00
FE00
7800
ENDCHAR
STARTCHAR musicalnotedbl
ENCODING 14
SWIDTH 700 0
DWIDTH 21 0
BBX 13 29 3 -7
VVECTOR 9 26
SWIDTH1 0 -1100
DWIDTH1 0 -33
BITMAP 
0200
0200
0200
0300
0380
02C0
0260
0230
0318
0388
02C8
0268
0238
0218
0208
0208
1E08
7E08
7E08
FE08
FC08
FC08
7078
01F8
01F8
03F8
03F0
03F0
01C0
ENDCHAR
STARTCHAR sun
ENCODING 15
SWIDTH 867 0
DWIDTH 26 0
BBX 20 20 3 0
VVECTOR 13 26
SWIDTH1 0 -1100
DWIDTH1 0 -33
BITMAP 
006000
006000
106080
39F9C0
1FFF80
0F0F00
0C0300
1C0380
180180
F801F0
F801F0
180180
1C0380
0C0300
0F0F00
1FFF80
39F9C0
106080
006000
006000
ENDCHAR
STARTCHAR triagrt
ENCODING 16
SWIDTH 600 0
DWIDTH 18 0
BBX 13 13 3 3
VVECTOR 10 26
SWIDTH1 0 -1100
DWIDTH1 0 -33
BITMAP 
8000
E000
F800
FE00
FF80
FFE0
FFF8
FFE0
FF80
FE00
F800
E000
8000
ENDCHAR
STARTCHAR triaglf
ENCODING 17
SWIDTH 600 0
DWIDTH 18 0
BBX 13 13 2 3
VVECTOR 8 26
SWIDTH1 0 -1100
DWIDTH1 0 -33
BITMAP 
0008
0038
00F8
03F8
0FF8
3FF8
FFF8
3FF8
0FF8
03F8
00F8
0038
0008
ENDCHAR
STARTCHAR arrowupdn
ENCODING 18
SWIDTH 500 0
DWIDTH 15 0
BBX 10 26 3 -5
VVECTOR 9 26
SWIDTH1 0 -1100
DWIDTH1 0 -33
BITMAP 
0C00
1E00
1E00
3F00
3F00
6D80
6D80
CCC0
CCC0
0C00
0C00
0C00
0C00
0C00
0C00
0C00
0C00
CCC0
CCC0
6D80
6D80
3F00
3F00
1E00
1E00
0C00
ENDCHAR
STARTCHAR exclamdbl
ENCODING 19
SWIDTH 667 0
DWIDTH 20 0
BBX 14 19 3 0
VVECTOR 10 26
SWIDTH1 0 -1100
DWIDTH1 0 -33
BITMAP 
6018
F03C
F03C
F03C
F03C
F03C
F03C
6018
6018
6018
6018
6018
6018
0000
0000
6018
F03C
F03C
6018
ENDCHAR
STARTCHAR char14
ENCODING 20
SWIDTH 467 0
DWIDTH 14 0
BBX 14 19 0 0
VVECTOR 7 26
SWIDTH1 0 -1100
DWIDTH1 0 -33
BITMAP 
1FFC
7E30
7E30
FE30
FE30
FE30
FE30
7E30
7E30
1E30
0630
0630
0630
0630
0630
0630
0630
0630
0630
ENDCHAR
STARTCHAR char15
ENCODING 21
SWIDTH 500 0
DWIDTH 15 0
BBX 12 25 2 -6
VVECTOR 9 26
SWIDTH1 0 -1100
DWIDTH1 0 -33
BITMAP 
0F80
38C0
30E0
71E0
71C0
3800
3C00
1F00
3F80
63C0
C1E0
C0F0
E070
F030
7830
3C60
1FC0
0F80
03C0
01C0
38E0
78E0
70C0
31C0
1F00
ENDCHAR
STARTCHAR filledrect
ENCODING 22
SWIDTH 933 0
DWIDTH 28 0
BBX 18 6 5 6
VVECTOR 14 26
SWIDTH1 0 -1100
DWIDTH1 0 -33
BITMAP 
FFFFC0
FFFFC0
FFFFC0
FFFFC0
FFFFC0
FFFFC0
ENDCHAR
STARTCHAR arrowupdnbse
ENCODING 23
SWIDTH 500 0
DWIDTH 15 0
BBX 10 28 3 -6
VVECTOR 9 26
SWIDTH1 0 -1100
DWIDTH1 0 -33
BITMAP 
0C00
1E00
1E00
3F00
3F00
6D80
6D80
CCC0
CCC0
0C00
0C00
0C00
0C00
0C00
0C00
CCC0
CCC0
6D80
6D80
3F00
3F00
1E00
1E00
0C00
0000
0000
FFC0
FFC0
ENDCHAR
STARTCHAR arrowup
ENCODING 24
SWIDTH 500 0
DWIDTH 15 0
BBX 10 26 3 -5
VVECTOR 9 26
SWIDTH1 0 -1100
DWIDTH1 0 -33
BITMAP 
0C00
1E00
1E00
3F00
3F00
6D80
6D80
CCC0
CCC0
0C00
0C00
0C00
0C00
0C00
0C00
0C00
0C00
0C00
0C00
0C00
0C00
0C00
0C00
0C00
0C00
0C00
ENDCHAR
STARTCHAR arrowdown
ENCODING 25
SWIDTH 500 0
DWIDTH 15 0
BBX 10 26 3 -5
VVECTOR 9 26
SWIDTH1 0 -1100
DWIDTH1 0 -33
BITMAP 
0C00
0C00
0C00
0C00
0C00
0C00
0C00
0C00
0C00
0C00
0C00
0C00
0C00
0C00
0C00
0C00
0C00
CCC0
CCC0
6D80
6D80
3F00
3F00
1E00
1E00
0C00
ENDCHAR
STARTCHAR arrowright
ENCODING 26
SWIDTH 1000 0
DWIDTH 30 0
BBX 26 10 2 4
VVECTOR 15 26
SWIDTH1 0 -1100
DWIDTH1 0 -33
BITMAP 
00006000
00007800
00001E00
00000780
FFFFFFC0
FFFFFFC0
00000780
00001E00
00007800
00006000
ENDCHAR
STARTCHAR arrowleft
ENCODING 27
SWIDTH 1000 0
DWIDTH 30 0
BBX 26 10 2 4
VVECTOR 15 26
SWIDTH1 0 -1100
DWIDTH1 0 -33
BITMAP 
01800000
07800000
1E000000
78000000
FFFFFFC0
FFFFFFC0
78000000
1E000000
07800000
01800000
ENDCHAR
STARTCHAR orthogonal
ENCODING 28
SWIDTH 567 0
DWIDTH 17 0
BBX 14 7 2 4
VVECTOR 10 26
SWIDTH1 0 -1100
DWIDTH1 0 -33
BITMAP 
C000
C000
C000
C000
C000
FFFC
FFFC
ENDCHAR
STARTCHAR arrowboth
ENCODING 29
SWIDTH 1000 0
DWIDTH 30 0
BBX 26 10 2 4
VVECTOR 15 26
SWIDTH1 0 -1100
DWIDTH1 0 -33
BITMAP 
01806000
07807800
1E001E00
78000780
FFFFFFC0
FFFFFFC0
78000780
1E001E00
07807800
01806000
ENDCHAR
STARTCHAR triagup
ENCODING 30
SWIDTH 600 0
DWIDTH 18 0
BBX 13 13 3 3
VVECTOR 10 26
SWIDTH1 0 -1100
DWIDTH1 0 -33
BITMAP 
0200
0200
0700
0700
0F80
0F80
1FC0
1FC0
3FE0
3FE0
7FF0
7FF0
FFF8
ENDCHAR
STARTCHAR triagdn
ENCODING 31
SWIDTH 600 0
DWIDTH 18 0
BBX 13 13 3 3
VVECTOR 10 26
SWIDTH1 0 -1100
DWIDTH1 0 -33
BITMAP 
FFF8
7FF0
7FF0
3FE0
3FE0
1FC0
1FC0
0F80
0F80
0700
0700
0200
0200
ENDCHAR
STARTCHAR space
ENCODING 32
SWIDTH 233 0
DWIDTH 7 0
BBX 0 0 7 26
VVECTOR 11 26
SWIDTH1 0 -1100
DWIDTH1 0 -33
BITMAP 
ENDCHAR
STARTCHAR exclam
ENCODING 33
SWIDTH 333 0
DWIDTH 10 0
BBX 4 19 3 0
VVECTOR 5 26
SWIDTH1 0 -1100
DWIDTH1 0 -33
BITMAP 
60
F0
F0
F0
F0
F0
F0
60
60
60
60
60
60
00
00
60
F0
F0
60
ENDCHAR
STARTCHAR quotedbl
ENCODING 34
SWIDTH 400 0
DWIDTH 12 0
BBX 8 9 2 10
VVECTOR 6 26
SWIDTH1 0 -1100
DWIDTH1 0 -33
BITMAP 
E7
E7
E7
E7
E7
42
42
42
42
ENDCHAR
STARTCHAR numbersign
ENCODING 35
SWIDTH 500 0
DWIDTH 15 0
BBX 14 19 1 0
VVECTOR 9 26
SWIDTH1 0 -1100
DWIDTH1 0 -33
BITMAP 
0318
0318
0210
0630
0630
3FFC
3FFC
0C60
0C60
0840
18C0
18C0
FFF0
FFF0
3180
3180
2100
6300
6300
ENDCHAR
STARTCHAR dollar
ENCODING 36
SWIDTH 500 0
DWIDTH 15 0
BBX 13 23 1 -2
VVECTOR 8 26
SWIDTH1 0 -1100
DWIDTH1 0 -33
BITMAP 
0200
0200
1FC0
7270
6230
C230
C210
E200
F200
7E00
3F00
0FC0
03E0
02F0
0278
0238
8218
C218
C230
F270
3FC0
0200
0200
ENDCHAR
STARTCHAR percent
ENCODING 37
SWIDTH 833 0
DWIDTH 25 0
BBX 22 22 1 -1
VVECTOR 12 26
SWIDTH1 0 -1100
DWIDTH1 0 -33
BITMAP 
000060
0780C0
1CC3C0
387D80
704300
604300
E0C600
C08C00
C18C00
C11800
661878
3C31CC
006384
006704
00C604
018E0C
018C08
030C18
060C10
060660
0C03C0
080000
ENDCHAR
STARTCHAR ampersand
ENCODING 38
SWIDTH 767 0
DWIDTH 23 0
BBX 21 19 2 0
VVECTOR 14 26
SWIDTH1 0 -1100
DWIDTH1 0 -33
BITMAP 
01E000
03B000
071800
061800
061800
063000
076000
03C7F0
0781C0
1DC180
39C300
70E200
E07600
E07C00
E03C00
F03E08
786F18
7FC7F0
1F01E0
ENDCHAR
STARTCHAR quotesingle
ENCODING 39
SWIDTH 167 0
DWIDTH 5 0
BBX 3 9 1 10
VVECTOR 3 26
SWIDTH1 0 -1100
DWIDTH1 0 -33
BITMAP 
E0
E0
E0
E0
E0
40
40
40
40
ENDCHAR
STARTCHAR parenleft
ENCODING 40
SWIDTH 333 0
DWIDTH 10 0
BBX 9 26 1 -7
VVECTOR 6 26
SWIDTH1 0 -1100
DWIDTH1 0 -33
BITMAP 
0180
0600
0C00
1800
3000
3000
6000
6000
6000
C000
C000
C000
C000
C000
C000
C000
C000
6000
6000
6000
3000
3000
1800
0C00
0600
0180
ENDCHAR
STARTCHAR parenright
ENCODING 41
SWIDTH 333 0
DWIDTH 10 0
BBX 9 26 0 -7
VVECTOR 4 26
SWIDTH1 0 -1100
DWIDTH1 0 -33
BITMAP 
C000
3000
1800
0C00
0600
0600
0300
0300
0300
0180
0180
0180
0180
0180
0180
0180
0180
0300
0300
0300
0600
0600
0C00
1800
3000
C000
ENDCHAR
STARTCHAR asterisk
ENCODING 42
SWIDTH 500 0
DWIDTH 15 0
BBX 11 11 2 8
VVECTOR 8 26
SWIDTH1 0 -1100
DWIDTH1 0 -33
BITMAP 
0E00
0E00
E4E0
E4E0
3F80
0E00
3F80
E4E0
E4E0
0E00
0E00
ENDCHAR
STARTCHAR plus
ENCODING 43
SWIDTH 567 0
DWIDTH 17 0
BBX 14 14 2 0
VVECTOR 10 26
SWIDTH1 0 -1100
DWIDTH1 0 -33
BITMAP 
0300
0300
0300
0300
0300
0300
FFFC
FFFC
0300
0300
0300
0300
0300
0300
ENDCHAR
STARTCHAR comma
ENCODING 44
SWIDTH 233 0
DWIDTH 7 0
BBX 4 8 2 -4
VVECTOR 5 26
SWIDTH1 0 -1100
DWIDTH1 0 -33
BITMAP 
60
F0
F0
70
20
20
40
80
ENDCHAR
STARTCHAR hyphen
ENCODING 45
SWIDTH 333 0
DWIDTH 10 0
BBX 7 2 2 6
VVECTOR 6 26
SWIDTH1 0 -1100
DWIDTH1 0 -33
BITMAP 
FE
FE
ENDCHAR
STARTCHAR period
ENCODING 46
SWIDTH 233 0
DWIDTH 7 0
BBX 4 4 2 0
VVECTOR 5 26
SWIDTH1 0 -1100
DWIDTH1 0 -33
BITMAP 
60
F0
F0
60
ENDCHAR
STARTCHAR slash
ENCODING 47
SWIDTH 267 0
DWIDTH 8 0
BBX 8 23 0 -3
VVECTOR 4 26
SWIDTH1 0 -1100
DWIDTH1 0 -33
BITMAP 
03
03
03
06
06
06
0C
0C
0C
0C
18
18
18
30
30
30
30
60
60
60
C0
C0
C0
ENDCHAR
STARTCHAR zero
ENCODING 48
SWIDTH 500 0
DWIDTH 15 0
BBX 13 19 1 0
VVECTOR 8 26
SWIDTH1 0 -1100
DWIDTH1 0 -33
BITMAP 
0F80
38E0
3060
7070
6030
E038
E038
E038
E038
E038
E038
E038
E038
E038
6030
7070
3060
38E0
0F80
ENDCHAR
STARTCHAR one
ENCODING 49
SWIDTH 500 0
DWIDTH 15 0
BBX 11 19 2 0
VVECTOR 8 26
SWIDTH1 0 -1100
DWIDTH1 0 -33
BITMAP 
0600
1E00
7E00
CE00
0E00
0E00
0E00
0E00
0E00
0E00
0E00
0E00
0E00
0E00
0E00
0E00
0E00
0E00
FFE0
ENDCHAR
STARTCHAR two
ENCODING 50
SWIDTH 500 0
DWIDTH 15 0
BBX 13 19 1 0
VVECTOR 8 26
SWIDTH1 0 -1100
DWIDTH1 0 -33
BITMAP 
0F80
3FE0
31E0
60F0
4070
0070
0070
0060
00E0
00C0
0180
0300
0200
0400
0C00
1808
3018
7FF0
FFF0
ENDCHAR
STARTCHAR three
ENCODING 51
SWIDTH 500 0
DWIDTH 15 0
BBX 13 19 1 0
VVECTOR 8 26
SWIDTH1 0 -1100
DWIDTH1 0 -33
BITMAP 
0F80
3FE0
31E0
60F0
4070
0060
0060
00C0
03C0
0FF0
00F0
0078
0038
0038
0038
0030
E060
F9C0
7F00
ENDCHAR
STARTCHAR four
ENCODING 52
SWIDTH 500 0
DWIDTH 15 0
BBX 13 19 1 0
VVECTOR 8 26
SWIDTH1 0 -1100
DWIDTH1 0 -33
BITMAP 
00E0
00E0
01E0
03E0
02E0
04E0
0CE0
08E0
10E0
30E0
20E0
40E0
C0E0
FFF8
FFF8
00E0
00E0
00E0
00E0
ENDCHAR
STARTCHAR five
ENCODING 53
SWIDTH 500 0
DWIDTH 15 0
BBX 12 20 1 0
VVECTOR 7 26
SWIDTH1 0 -1100
DWIDTH1 0 -33
BITMAP 
0010
0FF0
1FE0
1000
1000
3000
2000
3E00
7F80
7FE0
03E0
00F0
0070
0070
0030
0030
0020
E060
F1C0
7F00
ENDCHAR
STARTCHAR six
ENCODING 54
SWIDTH 500 0
DWIDTH 15 0
BBX 13 19 1 0
VVECTOR 8 26
SWIDTH1 0 -1100
DWIDTH1 0 -33
BITMAP 
00E0
0380
0600
0C00
1800
3800
3000
77C0
78E0
F070
E038
E038
E038
E038
E038
6030
7070
38E0
0F80
ENDCHAR
STARTCHAR seven
ENCODING 55
SWIDTH 500 0
DWIDTH 15 0
BBX 12 19 2 0
VVECTOR 9 26
SWIDTH1 0 -1100
DWIDTH1 0 -33
BITMAP 
7FF0
7FF0
C060
8060
00C0
00C0
00C0
0180
0180
0180
0300
0300
0300
0600
0600
0600
0C00
0C00
0C00
ENDCHAR
STARTCHAR eight
ENCODING 56
SWIDTH 500 0
DWIDTH 15 0
BBX 13 19 1 0
VVECTOR 8 26
SWIDTH1 0 -1100
DWIDTH1 0 -33
BITMAP 
0780
1CE0
3870
7030
7030
7830
3C60
1EC0
0F80
0FC0
39E0
70F0
E078
E038
E038
E038
7070
38E0
0F80
ENDCHAR
STARTCHAR nine
ENCODING 57
SWIDTH 500 0
DWIDTH 15 0
BBX 13 19 1 0
VVECTOR 8 26
SWIDTH1 0 -1100
DWIDTH1 0 -33
BITMAP 
0F80
38E0
7070
6030
E038
E038
E038
E038
E038
7078
38F0
1F70
0060
00E0
00C0
0180
0300
0E00
3800
ENDCHAR
STARTCHAR colon
ENCODING 58
SWIDTH 267 0
DWIDTH 8 0
BBX 4 13 2 0
VVECTOR 4 26
SWIDTH1 0 -1100
DWIDTH1 0 -33
BITMAP 
60
F0
F0
60
00
00
00
00
00
60
F0
F0
60
ENDCHAR
STARTCHAR semicolon
ENCODING 59
SWIDTH 267 0
DWIDTH 8 0
BBX 4 17 2 -4
VVECTOR 4 26
SWIDTH1 0 -1100
DWIDTH1 0 -33
BITMAP 
60
F0
F0
60
00
00
00
00
00
60
F0
F0
70
20
20
40
80
ENDCHAR
STARTCHAR less
ENCODING 60
SWIDTH 567 0
DWIDTH 17 0
BBX 14 15 2 0
VVECTOR 10 26
SWIDTH1 0 -1100
DWIDTH1 0 -33
BITMAP 
000C
003C
00F8
03E0
0F80
3E00
F800
E000
F800
3E00
0F80
03E0
00F8
003C
000C
ENDCHAR
STARTCHAR equal
ENCODING 61
SWIDTH 567 0
DWIDTH 17 0
BBX 14 8 2 3
VVECTOR 10 26
SWIDTH1 0 -1100
DWIDTH1 0 -33
BITMAP 
FFFC
FFFC
0000
0000
0000
0000
FFFC
FFFC
ENDCHAR
STARTCHAR greater
ENCODING 62
SWIDTH 567 0
DWIDTH 17 0
BBX 14 15 2 0
VVECTOR 10 26
SWIDTH1 0 -1100
DWIDTH1 0 -33
BITMAP 
C000
F000
7C00
1F00
07C0
01F0
007C
001C
007C
01F0
07C0
1F00
7C00
F000
C000
ENDCHAR
STARTCHAR question
ENCODING 63
SWIDTH 433 0
DWIDTH 13 0
BBX 10 19 2 0
VVECTOR 8 26
SWIDTH1 0 -1100
DWIDTH1 0 -33
BITMAP 
3F00
6380
C1C0
E1C0
E1C0
41C0
0380
0300
0700
0600
0C00
0C00
0C00
0000
0000
0C00
1E00
1E00
0C00
ENDCHAR
STARTCHAR at
ENCODING 64
SWIDTH 933 0
DWIDTH 28 0
BBX 26 26 1 -5
VVECTOR 14 26
SWIDTH1 0 -1100
DWIDTH1 0 -33
BITMAP 
003FE000
00F07800
03801C00
07000600
0C000300
1C000300
38000180
300F3180
703DB0C0
7070F0C0
60E060C0
E0C0E0C0
E1C0E0C0
E180E0C0
E180C0C0
E181C180
E181C180
61C2C300
70CEE600
70787C00
38000000
18000000
1C000600
07001C00
03E0F000
007FC000
ENDCHAR
STARTCHAR A
ENCODING 65
SWIDTH 733 0
DWIDTH 22 0
BBX 21 19 1 0
VVECTOR 12 26
SWIDTH1 0 -1100
DWIDTH1 0 -33
BITMAP 
001000
003800
003800
007C00
005C00
00DC00
008E00
018E00
010700
030700
020380
060380
07FF80
0C01C0
0801C0
1800E0
1000E0
3000F0
FC03F8
ENDCHAR
STARTCHAR B
ENCODING 66
SWIDTH 667 0
DWIDTH 20 0
BBX 18 19 1 0
VVECTOR 10 26
SWIDTH1 0 -1100
DWIDTH1 0 -33
BITMAP 
FFF800
1C1E00
1C0700
1C0380
1C0380
1C0380
1C0700
1C0E00
1FFC00
1C0F00
1C0380
1C01C0
1C01C0
1C01C0
1C01C0
1C01C0
1C0380
1C0F00
FFFC00
ENDCHAR
STARTCHAR C
ENCODING 67
SWIDTH 667 0
DWIDTH 20 0
BBX 17 19 2 0
VVECTOR 11 26
SWIDTH1 0 -1100
DWIDTH1 0 -33
BITMAP 
03F100
0F1F00
1C0700
380380
700180
700080
E00000
E00000
E00000
E00000
E00000
E00000
E00000
700000
700080
380180
1C0300
0F0E00
03F800
ENDCHAR
STARTCHAR D
ENCODING 68
SWIDTH 733 0
DWIDTH 22 0
BBX 20 19 1 0
VVECTOR 11 26
SWIDTH1 0 -1100
DWIDTH1 0 -33
BITMAP 
FFFC00
1C0F00
1C0380
1C01C0
1C00E0
1C00E0
1C0070
1C0070
1C0070
1C0070
1C0070
1C0070
1C0070
1C00E0
1C00E0
1C01C0
1C0380
1C0F00
FFFC00
ENDCHAR
STARTCHAR E
ENCODING 69
SWIDTH 600 0
DWIDTH 18 0
BBX 17 19 1 0
VVECTOR 10 26
SWIDTH1 0 -1100
DWIDTH1 0 -33
BITMAP 
FFFF00
1C0300
1C0100
1C0100
1C0000
1C0000
1C0400
1C0400
1C0C00
1FFC00
1C0C00
1C0400
1C0400
1C0000
1C0080
1C0180
1C0300
1C0700
FFFE00
ENDCHAR
STARTCHAR F
ENCODING 70
SWIDTH 567 0
DWIDTH 17 0
BBX 16 19 1 0
VVECTOR 10 26
SWIDTH1 0 -1100
DWIDTH1 0 -33
BITMAP 
FFFF
1C03
1C01
1C01
1C00
1C00
1C04
1C04
1C0C
1FFC
1C0C
1C04
1C04
1C00
1C00
1C00
1C00
1C00
FF80
ENDCHAR
STARTCHAR G
ENCODING 71
SWIDTH 733 0
DWIDTH 22 0
BBX 20 19 2 0
VVECTOR 13 26
SWIDTH1 0 -1100
DWIDTH1 0 -33
BITMAP 
03F880
0F0F80
1C0380
3801C0
7000C0
700040
E00000
E00000
E00000
E00FF0
E001C0
E001C0
E001C0
7001C0
7001C0
3801C0
1C01C0
0F0780
03FE00
ENDCHAR
STARTCHAR H
ENCODING 72
SWIDTH 733 0
DWIDTH 22 0
BBX 21 19 1 0
VVECTOR 12 26
SWIDTH1 0 -1100
DWIDTH1 0 -33
BITMAP 
FF8FF8
1C01C0
1C01C0
1C01C0
1C01C0
1C01C0
1C01C0
1C01C0
1C01C0
1FFFC0
1C01C0
1C01C0
1C01C0
1C01C0
1C01C0
1C01C0
1C01C0
1C01C0
FF8FF8
ENDCHAR
STARTCHAR I
ENCODING 73
SWIDTH 333 0
DWIDTH 10 0
BBX 9 19 1 0
VVECTOR 6 26
SWIDTH1 0 -1100
DWIDTH1 0 -33
BITMAP 
FF80
1C00
1C00
1C00
1C00
1C00
1C00
1C00
1C00
1C00
1C00
1C00
1C00
1C00
1C00
1C00
1C00
1C00
FF80
ENDCHAR
STARTCHAR J
ENCODING 74
SWIDTH 433 0
DWIDTH 13 0
BBX 12 19 1 0
VVECTOR 8 26
SWIDTH1 0 -1100
DWIDTH1 0 -33
BITMAP 
1FF0
0380
0380
0380
0380
0380
0380
0380
0380
0380
0380
0380
0380
0380
0380
4380
E300
E700
7C00
ENDCHAR
STARTCHAR K
ENCODING 75
SWIDTH 700 0
DWIDTH 21 0
BBX 20 19 1 0
VVECTOR 12 26
SWIDTH1 0 -1100
DWIDTH1 0 -33
BITMAP 
FF8FE0
1C0380
1C0600
1C0C00
1C1800
1C3000
1C6000
1CC000
1D8000
1FC000
1DE000
1CF000
1C7800
1C3C00
1C1E00
1C0F00
1C0780
1C03C0
FF8FF0
ENDCHAR
STARTCHAR L
ENCODING 76
SWIDTH 600 0
DWIDTH 18 0
BBX 17 19 1 0
VVECTOR 10 26
SWIDTH1 0 -1100
DWIDTH1 0 -33
BITMAP 
FF8000
1C0000
1C0000
1C0000
1C0000
1C0000
1C0000
1C0000
1C0000
1C0000
1C0000
1C0000
1C0000
1C0000
1C0080
1C0180
1C0300
1C0700
FFFE00
ENDCHAR
STARTCHAR M
ENCODING 77
SWIDTH 867 0
DWIDTH 26 0
BBX 25 19 1 0
VVECTOR 14 26
SWIDTH1 0 -1100
DWIDTH1 0 -33
BITMAP 
FE003F80
1E003C00
1F007C00
1F007C00
1B80DC00
1B80DC00
1B809C00
19C19C00
19C11C00
19C31C00
18E31C00
18E21C00
18E61C00
18761C00
18741C00
183C1C00
183C1C00
18381C00
FF18FF80
ENDCHAR
STARTCHAR N
ENCODING 78
SWIDTH 700 0
DWIDTH 21 0
BBX 20 19 1 0
VVECTOR 12 26
SWIDTH1 0 -1100
DWIDTH1 0 -33
BITMAP 
FC0FF0
3E0180
1F0180
1F0180
1B8180
1BC180
19C180
18E180
18F180
187980
183980
181D80
181D80
180F80
180780
180780
180380
180180
FF0080
ENDCHAR
STARTCHAR O
ENCODING 79
SWIDTH 733 0
DWIDTH 22 0
BBX 19 19 2 0
VVECTOR 12 26
SWIDTH1 0 -1100
DWIDTH1 0 -33
BITMAP 
03F800
0F1E00
1C0700
380380
7001C0
7001C0
E000E0
E000E0
E000E0
E000E0
E000E0
E000E0
E000E0
7001C0
7001C0
380380
1C0700
0F1E00
03F800
ENDCHAR
STARTCHAR P
ENCODING 80
SWIDTH 600 0
DWIDTH 18 0
BBX 17 19 1 0
VVECTOR 10 26
SWIDTH1 0 -1100
DWIDTH1 0 -33
BITMAP 
FFF800
1C0E00
1C0700
1C0380
1C0380
1C0380
1C0380
1C0700
1C0E00
1FF800
1C0000
1C0000
1C0000
1C0000
1C0000
1C0000
1C0000
1C0000
FF8000
ENDCHAR
STARTCHAR Q
ENCODING 81
SWIDTH 733 0
DWIDTH 22 0
BBX 19 22 2 -3
VVECTOR 12 26
SWIDTH1 0 -1100
DWIDTH1 0 -33
BITMAP 
03F800
0F1E00
1C0700
380380
7001C0
7001C0
E000E0
E000E0
E000E0
E000E0
E000E0
E000E0
E000E0
7001C0
7001C0
380380
1C0700
0F1E00
03F800
00F800
003E00
000FC0
ENDCHAR
STARTCHAR R
ENCODING 82
SWIDTH 667 0
DWIDTH 20 0
BBX 19 19 1 0
VVECTOR 11 26
SWIDTH1 0 -1100
DWIDTH1 0 -33
BITMAP 
FFF800
1C0E00
1C0700
1C0380
1C0380
1C0380
1C0380
1C0700
1C0E00
1FF800
1C7000
1C7800
1C3C00
1C1C00
1C1E00
1C0F00
1C0700
1C0780
FF83E0
ENDCHAR
STARTCHAR S
ENCODING 83
SWIDTH 567 0
DWIDTH 17 0
BBX 14 19 2 0
VVECTOR 10 26
SWIDTH1 0 -1100
DWIDTH1 0 -33
BITMAP 
1FC8
70F8
6038
E018
E008
F008
7800
7E00
1F80
0FC0
03F0
01F8
007C
803C
801C
C01C
E038
F870
9FC0
ENDCHAR
STARTCHAR T
ENCODING 84
SWIDTH 600 0
DWIDTH 18 0
BBX 17 19 1 0
VVECTOR 10 26
SWIDTH1 0 -1100
DWIDTH1 0 -33
BITMAP 
FFFF80
E1C380
C1C180
81C080
81C080
01C000
01C000
01C000
01C000
01C000
01C000
01C000
01C000
01C000
01C000
01C000
01C000
01C000
0FF800
ENDCHAR
STARTCHAR U
ENCODING 85
SWIDTH 733 0
DWIDTH 22 0
BBX 21 19 1 0
VVECTOR 12 26
SWIDTH1 0 -1100
DWIDTH1 0 -33
BITMAP 
FF87F8
1C00C0
1C00C0
1C00C0
1C00C0
1C00C0
1C00C0
1C00C0
1C00C0
1C00C0
1C00C0
1C00C0
1C00C0
1C00C0
1C00C0
0E0180
0E0180
078700
01FC00
ENDCHAR
STARTCHAR V
ENCODING 86
SWIDTH 667 0
DWIDTH 20 0
BBX 19 19 1 0
VVECTOR 11 26
SWIDTH1 0 -1100
DWIDTH1 0 -33
BITMAP 
FE07E0
380180
380180
1C0100
1C0300
1C0300
0E0200
0E0600
070600
070400
070C00
038C00
038800
01D800
01D800
00F000
00F000
006000
006000
ENDCHAR
STARTCHAR W
ENCODING 87
SWIDTH 1000 0
DWIDTH 30 0
BBX 29 19 1 0
VVECTOR 16 26
SWIDTH1 0 -1100
DWIDTH1 0 -33
BITMAP 
FE3F81F8
380E0060
380E0060
1C070040
1C0700C0
1C0700C0
0E038080
0E078180
0707C180
0705C100
070DC300
038CE300
0388E200
01D87600
01D87600
00F03C00
00F03C00
00601800
00601800
ENDCHAR
STARTCHAR X
ENCODING 88
SWIDTH 667 0
DWIDTH 20 0
BBX 19 19 1 0
VVECTOR 11 26
SWIDTH1 0 -1100
DWIDTH1 0 -33
BITMAP 
FF0FE0
3C0380
1C0300
0E0600
0F0C00
070800
039800
03F000
01E000
00E000
00F000
01F800
033800
021C00
061E00
0C0E00
180700
380780
FE1FE0
ENDCHAR
STARTCHAR Y
ENCODING 89
SWIDTH 700 0
DWIDTH 21 0
BBX 20 19 1 0
VVECTOR 12 26
SWIDTH1 0 -1100
DWIDTH1 0 -33
BITMAP 
FF07F0
3C00C0
1C0180
0E0100
0F0300
070200
038600
03C400
01CC00
00F800
00F800
007000
007000
007000
007000
007000
007000
007000
03FE00
ENDCHAR
STARTCHAR Z
ENCODING 90
SWIDTH 600 0
DWIDTH 18 0
BBX 17 19 1 0
VVECTOR 10 26
SWIDTH1 0 -1100
DWIDTH1 0 -33
BITMAP 
7FFF00
700E00
601E00
403C00
403800
007800
00F000
00E000
01E000
03C000
038000
078000
0F0000
0E0000
1E0080
3C0180
380300
780700
FFFE00
ENDCHAR
STARTCHAR bracketleft
ENCODING 91
SWIDTH 333 0
DWIDTH 10 0
BBX 6 26 3 -7
VVECTOR 7 26
SWIDTH1 0 -1100
DWIDTH1 0 -33
BITMAP 
FC
C0
C0
C0
C0
C0
C0
C0
C0
C0
C0
C0
C0
C0
C0
C0
C0
C0
C0
C0
C0
C0
C0
C0
C0
FC
ENDCHAR
STARTCHAR backslash
ENCODING 92
SWIDTH 267 0
DWIDTH 8 0
BBX 8 23 0 -3
VVECTOR 4 26
SWIDTH1 0 -1100
DWIDTH1 0 -33
BITMAP 
C0
C0
C0
60
60
60
30
30
30
30
18
18
18
0C
0C
0C
0C
06
06
06
03
03
03
ENDCHAR
STARTCHAR bracketright
ENCODING 93
SWIDTH 333 0
DWIDTH 10 0
BBX 6 26 1 -7
VVECTOR 3 26
SWIDTH1 0 -1100
DWIDTH1 0 -33
BITMAP 
FC
0C
0C
0C
0C
0C
0C
0C
0C
0C
0C
0C
0C
0C
0C
0C
0C
0C
0C
0C
0C
0C
0C
0C
0C
FC
ENDCHAR
STARTCHAR asciicircum
ENCODING 94
SWIDTH 333 0
DWIDTH 10 0
BBX 9 5 1 14
VVECTOR 6 26
SWIDTH1 0 -1100
DWIDTH1 0 -33
BITMAP 
0800
1C00
3600
6300
C180
ENDCHAR
STARTCHAR underscore
ENCODING 95
SWIDTH 500 0
DWIDTH 15 0
BBX 15 2 0 -7
VVECTOR 8 26
SWIDTH1 0 -1100
DWIDTH1 0 -33
BITMAP 
FFFE
FFFE
ENDCHAR
STARTCHAR grave
ENCODING 96
SWIDTH 333 0
DWIDTH 10 0
BBX 6 5 2 14
VVECTOR 5 26
SWIDTH1 0 -1100
DWIDTH1 0 -33
BITMAP 
C0
E0
70
18
04
ENDCHAR
STARTCHAR a
ENCODING 97
SWIDTH 467 0
DWIDTH 14 0
BBX 12 13 1 0
VVECTOR 7 26
SWIDTH1 0 -1100
DWIDTH1 0 -33
BITMAP 
1F00
7180
70C0
60C0
00C0
01C0
0EC0
38C0
60C0
C0C0
C0C0
E3D0
7CE0
ENDCHAR
STARTCHAR b
ENCODING 98
SWIDTH 500 0
DWIDTH 15 0
BBX 14 19 0 0
VVECTOR 7 26
SWIDTH1 0 -1100
DWIDTH1 0 -33
BITMAP 
3000
F000
3000
3000
3000
3000
31E0
37F8
3C38
381C
301C
300C
300C
300C
300C
3018
3018
3870
0FC0
ENDCHAR
STARTCHAR c
ENCODING 99
SWIDTH 433 0
DWIDTH 13 0
BBX 11 13 1 0
VVECTOR 7 26
SWIDTH1 0 -1100
DWIDTH1 0 -33
BITMAP 
0F80
38E0
60E0
6060
C000
C000
C000
C000
E000
E020
7060
7FC0
1F00
ENDCHAR
STARTCHAR d
ENCODING 100
SWIDTH 533 0
DWIDTH 16 0
BBX 14 19 1 0
VVECTOR 8 26
SWIDTH1 0 -1100
DWIDTH1 0 -33
BITMAP 
0030
00F0
0030
0030
0030
0030
0F30
39F0
6070
6030
C030
C030
C030
C030
E030
E070
70F0
7FBC
1E30
ENDCHAR
STARTCHAR e
ENCODING 101
SWIDTH 433 0
DWIDTH 13 0
BBX 11 13 1 0
VVECTOR 7 26
SWIDTH1 0 -1100
DWIDTH1 0 -33
BITMAP 
0F00
39C0
60C0
60E0
FFE0
C000
C000
C000
E000
E020
7060
7FC0
1F00
ENDCHAR
STARTCHAR f
ENCODING 102
SWIDTH 300 0
DWIDTH 9 0
BBX 8 19 1 0
VVECTOR 6 26
SWIDTH1 0 -1100
DWIDTH1 0 -33
BITMAP 
0E
17
33
30
30
30
FE
30
30
30
30
30
30
30
30
30
30
30
FC
ENDCHAR
STARTCHAR g
ENCODING 103
SWIDTH 433 0
DWIDTH 13 0
BBX 13 19 0 -6
VVECTOR 7 26
SWIDTH1 0 -1100
DWIDTH1 0 -33
BITMAP 
0F80
31F8
20E0
6060
6060
6060
7040
38C0
1F00
2000
6000
7FC0
3FF0
2038
4018
C018
C030
E0E0
7F00
ENDCHAR
STARTCHAR h
ENCODING 104
SWIDTH 533 0
DWIDTH 16 0
BBX 14 19 1 0
VVECTOR 8 26
SWIDTH1 0 -1100
DWIDTH1 0 -33
BITMAP 
3000
F000
3000
3000
3000
3000
31E0
37F0
3C70
3830
3030
3030
3030
3030
3030
3030
3030
3030
FCFC
ENDCHAR
STARTCHAR i
ENCODING 105
SWIDTH 267 0
DWIDTH 8 0
BBX 6 19 1 0
VVECTOR 4 26
SWIDTH1 0 -1100
DWIDTH1 0 -33
BITMAP 
30
30
30
00
00
00
30
F0
30
30
30
30
30
30
30
30
30
30
FC
ENDCHAR
STARTCHAR j
ENCODING 106
SWIDTH 300 0
DWIDTH 9 0
BBX 6 25 0 -6
VVECTOR 2 26
SWIDTH1 0 -1100
DWIDTH1 0 -33
BITMAP 
0C
0C
0C
00
00
00
0C
3C
0C
0C
0C
0C
0C
0C
0C
0C
0C
0C
0C
0C
0C
0C
CC
E8
70
ENDCHAR
STARTCHAR k
ENCODING 107
SWIDTH 500 0
DWIDTH 15 0
BBX 14 19 1 0
VVECTOR 9 26
SWIDTH1 0 -1100
DWIDTH1 0 -33
BITMAP 
3000
F000
3000
3000
3000
3000
31F8
30E0
3180
3300
3600
3C00
3E00
3700
3380
31C0
30E0
3070
FDFC
ENDCHAR
STARTCHAR l
ENCODING 108
SWIDTH 267 0
DWIDTH 8 0
BBX 6 19 1 0
VVECTOR 4 26
SWIDTH1 0 -1100
DWIDTH1 0 -33
BITMAP 
30
F0
30
30
30
30
30
30
30
30
30
30
30
30
30
30
30
30
FC
ENDCHAR
STARTCHAR m
ENCODING 109
SWIDTH 733 0
DWIDTH 22 0
BBX 20 13 1 0
VVECTOR 11 26
SWIDTH1 0 -1100
DWIDTH1 0 -33
BITMAP 
31C380
F7EFC0
3CF9C0
3870C0
3060C0
3060C0
3060C0
3060C0
3060C0
3060C0
3060C0
3060C0
FCF3F0
ENDCHAR
STARTCHAR n
ENCODING 110
SWIDTH 533 0
DWIDTH 16 0
BBX 14 13 1 0
VVECTOR 8 26
SWIDTH1 0 -1100
DWIDTH1 0 -33
BITMAP 
31E0
F7F0
3C70
3830
3030
3030
3030
3030
3030
3030
3030
3030
FCFC
ENDCHAR
STARTCHAR o
ENCODING 111
SWIDTH 500 0
DWIDTH 15 0
BBX 13 13 1 0
VVECTOR 8 26
SWIDTH1 0 -1100
DWIDTH1 0 -33
BITMAP 
0FC0
39F0
6070
6038
C038
C018
C018
C018
E018
E030
7030
7CE0
1F80
ENDCHAR
STARTCHAR p
ENCODING 112
SWIDTH 533 0
DWIDTH 16 0
BBX 14 19 1 -6
VVECTOR 8 26
SWIDTH1 0 -1100
DWIDTH1 0 -33
BITMAP 
31E0
F7F8
3C38
381C
301C
300C
300C
300C
300C
3018
3818
3E70
33C0
3000
3000
3000
3000
3000
FC00
ENDCHAR
STARTCHAR q
ENCODING 113
SWIDTH 500 0
DWIDTH 15 0
BBX 14 19 1 -6
VVECTOR 9 26
SWIDTH1 0 -1100
DWIDTH1 0 -33
BITMAP 
0F10
39F0
6070
6030
C030
C030
C030
C030
E030
E070
70F0
7FB0
1E30
0030
0030
0030
0030
0030
00FC
ENDCHAR
STARTCHAR r
ENCODING 114
SWIDTH 300 0
DWIDTH 9 0
BBX 8 13 1 0
VVECTOR 6 26
SWIDTH1 0 -1100
DWIDTH1 0 -33
BITMAP 
33
F7
3B
30
30
30
30
30
30
30
30
30
FC
ENDCHAR
STARTCHAR s
ENCODING 115
SWIDTH 367 0
DWIDTH 11 0
BBX 9 13 1 0
VVECTOR 6 26
SWIDTH1 0 -1100
DWIDTH1 0 -33
BITMAP 
3D00
6700
C300
C100
F000
7800
1E00
0F00
8380
8180
C180
F300
9E00
ENDCHAR
STARTCHAR t
ENCODING 116
SWIDTH 300 0
DWIDTH 9 0
BBX 7 17 1 0
VVECTOR 5 26
SWIDTH1 0 -1100
DWIDTH1 0 -33
BITMAP 
10
10
30
70
FE
30
30
30
30
30
30
30
30
30
30
32
1C
ENDCHAR
STARTCHAR u
ENCODING 117
SWIDTH 533 0
DWIDTH 16 0
BBX 14 13 1 0
VVECTOR 8 26
SWIDTH1 0 -1100
DWIDTH1 0 -33
BITMAP 
F0F0
3030
3030
3030
3030
3030
3030
3030
3030
3070
38F0
3FBC
1E30
ENDCHAR
STARTCHAR v
ENCODING 118
SWIDTH 467 0
DWIDTH 14 0
BBX 14 13 0 0
VVECTOR 7 26
SWIDTH1 0 -1100
DWIDTH1 0 -33
BITMAP 
FC7C
7010
3030
3820
1820
1860
1C40
0C40
0EC0
0680
0780
0300
0300
ENDCHAR
STARTCHAR w
ENCODING 119
SWIDTH 700 0
DWIDTH 21 0
BBX 21 13 0 0
VVECTOR 11 26
SWIDTH1 0 -1100
DWIDTH1 0 -33
BITMAP 
F8F878
707030
303020
383020
183840
185840
1C5C40
0C4C80
0C8C80
0E8E80
078700
070700
030300
ENDCHAR
STARTCHAR x
ENCODING 120
SWIDTH 433 0
DWIDTH 13 0
BBX 13 13 0 0
VVECTOR 7 26
SWIDTH1 0 -1100
DWIDTH1 0 -33
BITMAP 
F8F8
7060
38C0
1880
0D00
0F00
0700
0780
0980
18C0
10E0
3070
F8F8
ENDCHAR
STARTCHAR y
ENCODING 121
SWIDTH 467 0
DWIDTH 14 0
BBX 14 19 0 -6
VVECTOR 7 26
SWIDTH1 0 -1100
DWIDTH1 0 -33
BITMAP 
FC7C
7010
3030
3820
1820
1860
1C40
0C40
0EC0
0680
0780
0700
0300
0200
0600
0400
6C00
F800
7000
ENDCHAR
STARTCHAR z
ENCODING 122
SWIDTH 467 0
DWIDTH 14 0
BBX 12 13 1 0
VVECTOR 7 26
SWIDTH1 0 -1100
DWIDTH1 0 -33
BITMAP 
7FF0
60E0
41C0
41C0
0380
0700
0E00
0E00
1C00
3810
7010
7030
FFF0
ENDCHAR
STARTCHAR braceleft
ENCODING 123
SWIDTH 467 0
DWIDTH 14 0
BBX 9 26 3 -7
VVECTOR 8 26
SWIDTH1 0 -1100
DWIDTH1 0 -33
BITMAP 
0380
0600
0C00
0C00
0C00
0C00
0C00
0C00
0C00
0C00
1800
3000
E000
3000
1800
0C00
0C00
0C00
0C00
0C00
0C00
0C00
0C00
0C00
0600
0380
ENDCHAR
STARTCHAR bar
ENCODING 124
SWIDTH 200 0
DWIDTH 6 0
BBX 2 30 2 -7
VVECTOR 3 26
SWIDTH1 0 -1100
DWIDTH1 0 -33
BITMAP 
C0
C0
C0
C0
C0
C0
C0
C0
C0
C0
C0
C0
C0
C0
C0
C0
C0
C0
C0
C0
C0
C0
C0
C0
C0
C0
C0
C0
C0
C0
ENDCHAR
STARTCHAR braceright
ENCODING 125
SWIDTH 467 0
DWIDTH 14 0
BBX 9 26 3 -7
VVECTOR 8 26
SWIDTH1 0 -1100
DWIDTH1 0 -33
BITMAP 
E000
3000
1800
1800
1800
1800
1800
1800
1800
1800
0C00
0600
0380
0600
0C00
1800
1800
1800
1800
1800
1800
1800
1800
1800
3000
E000
ENDCHAR
STARTCHAR asciitilde
ENCODING 126
SWIDTH 333 0
DWIDTH 10 0
BBX 9 3 1 16
VVECTOR 6 26
SWIDTH1 0 -1100
DWIDTH1 0 -33
BITMAP 
7880
FF80
8F00
ENDCHAR
STARTCHAR house
ENCODING 127
SWIDTH 867 0
DWIDTH 26 0
BBX 23 22 2 0
VVECTOR 14 26
SWIDTH1 0 -1100
DWIDTH1 0 -33
BITMAP 
001000
003800
007C00
00EE00
01C700
038380
0701C0
0E00E0
1C0070
380038
70001C
E0000E
C00006
C00006
C00006
C00006
C00006
C00006
C00006
C00006
FFFFFE
FFFFFE
ENDCHAR
STARTCHAR Ccedilla
ENCODING 128
SWIDTH 667 0
DWIDTH 20 0
BBX 17 26 2 -7
VVECTOR 11 26
SWIDTH1 0 -1100
DWIDTH1 0 -33
BITMAP 
03F100
0F1F00
1C0700
380380
700180
700080
E00000
E00000
E00000
E00000
E00000
E00000
E00000
700000
700080
380180
1C0300
0F0E00
03F800
00C000
00C000
00F000
001800
001800
031800
01F000
ENDCHAR
STARTCHAR udieresis
ENCODING 129
SWIDTH 533 0
DWIDTH 16 0
BBX 14 19 1 0
VVECTOR 8 26
SWIDTH1 0 -1100
DWIDTH1 0 -33
BITMAP 
1CE0
1CE0
1CE0
0000
0000
0000
F0F0
3030
3030
3030
3030
3030
3030
3030
3030
3070
38F0
3FBC
1E30
ENDCHAR
STARTCHAR eacute
ENCODING 130
SWIDTH 433 0
DWIDTH 13 0
BBX 11 20 1 0
VVECTOR 7 26
SWIDTH1 0 -1100
DWIDTH1 0 -33
BITMAP 
0180
0380
0700
0C00
1000
0000
0000
0F00
39C0
60C0
60E0
FFE0
C000
C000
C000
E000
E020
7060
7FC0
1F00
ENDCHAR
STARTCHAR acircumflex
ENCODING 131
SWIDTH 467 0
DWIDTH 14 0
BBX 12 20 1 0
VVECTOR 7 26
SWIDTH1 0 -1100
DWIDTH1 0 -33
BITMAP 
0400
0E00
1B00
3180
60C0
0000
0000
1F00
7180
70C0
60C0
00C0
01C0
0EC0
38C0
60C0
C0C0
C0C0
E3D0
7CE0
ENDCHAR
STARTCHAR adieresis
ENCODING 132
SWIDTH 467 0
DWIDTH 14 0
BBX 12 19 1 0
VVECTOR 7 26
SWIDTH1 0 -1100
DWIDTH1 0 -33
BITMAP 
7380
7380
7380
0000
0000
0000
1F00
7180
70C0
60C0
00C0
01C0
0EC0
38C0
60C0
C0C0
C0C0
E3D0
7CE0
ENDCHAR
STARTCHAR agrave
ENCODING 133
SWIDTH 467 0
DWIDTH 14 0
BBX 12 20 1 0
VVECTOR 7 26
SWIDTH1 0 -1100
DWIDTH1 0 -33
BITMAP 
3000
3800
1C00
0600
0100
0000
0000
1F00
7180
70C0
60C0
00C0
01C0
0EC0
38C0
60C0
C0C0
C0C0
E3D0
7CE0
ENDCHAR
STARTCHAR aring
ENCODING 134
SWIDTH 467 0
DWIDTH 14 0
BBX 12 21 1 0
VVECTOR 7 26
SWIDTH1 0 -1100
DWIDTH1 0 -33
BITMAP 
1E00
3300
2100
2100
3300
1E00
0000
0000
1F00
7180
70C0
60C0
00C0
01C0
0EC0
38C0
60C0
C0C0
C0C0
E3D0
7CE0
ENDCHAR
STARTCHAR ccedilla
ENCODING 135
SWIDTH 433 0
DWIDTH 13 0
BBX 11 20 1 -7
VVECTOR 7 26
SWIDTH1 0 -1100
DWIDTH1 0 -33
BITMAP 
0F80
38E0
60E0
6060
C000
C000
C000
C000
E000
E020
7060
7FC0
1F00
0C00
0C00
0F00
0180
0180
3180
1F00
ENDCHAR
STARTCHAR ecircumflex
ENCODING 136
SWIDTH 433 0
DWIDTH 13 0
BBX 11 20 1 0
VVECTOR 7 26
SWIDTH1 0 -1100
DWIDTH1 0 -33
BITMAP 
0400
0E00
1B00
3180
60C0
0000
0000
0F00
39C0
60C0
60E0
FFE0
C000
C000
C000
E000
E020
7060
7FC0
1F00
ENDCHAR
STARTCHAR edieresis
ENCODING 137
SWIDTH 433 0
DWIDTH 13 0
BBX 11 19 1 0
VVECTOR 7 26
SWIDTH1 0 -1100
DWIDTH1 0 -33
BITMAP 
39C0
39C0
39C0
0000
0000
0000
0F00
39C0
60C0
60E0
FFE0
C000
C000
C000
E000
E020
7060
7FC0
1F00
ENDCHAR
STARTCHAR egrave
ENCODING 138
SWIDTH 433 0
DWIDTH 13 0
BBX 11 20 1 0
VVECTOR 7 26
SWIDTH1 0 -1100
DWIDTH1 0 -33
BITMAP 
3000
3800
1C00
0600
0100
0000
0000
0F00
39C0
60C0
60E0
FFE0
C000
C000
C000
E000
E020
7060
7FC0
1F00
ENDCHAR
STARTCHAR idieresis
ENCODING 139
SWIDTH 267 0
DWIDTH 8 0
BBX 8 19 0 0
VVECTOR 4 26
SWIDTH1 0 -1100
DWIDTH1 0 -33
BITMAP 
E7
E7
E7
00
00
00
18
78
18
18
18
18
18
18
18
18
18
18
7E
ENDCHAR
STARTCHAR icircumflex
ENCODING 140
SWIDTH 267 0
DWIDTH 8 0
BBX 7 20 1 0
VVECTOR 5 26
SWIDTH1 0 -1100
DWIDTH1 0 -33
BITMAP 
10
38
6C
C6
82
00
00
30
F0
30
30
30
30
30
30
30
30
30
30
FC
ENDCHAR
STARTCHAR igrave
ENCODING 141
SWIDTH 267 0
DWIDTH 8 0
BBX 7 20 0 0
VVECTOR 3 26
SWIDTH1 0 -1100
DWIDTH1 0 -33
BITMAP 
C0
E0
70
18
04
00
00
18
78
18
18
18
18
18
18
18
18
18
18
7E
ENDCHAR
STARTCHAR Adieresis
ENCODING 142
SWIDTH 733 0
DWIDTH 22 0
BBX 21 25 1 0
VVECTOR 12 26
SWIDTH1 0 -1100
DWIDTH1 0 -33
BITMAP 
00E700
00E700
00E700
000000
000000
000000
001000
003800
003800
007C00
005C00
00DC00
008E00
018E00
010700
030700
020380
060380
07FF80
0C01C0
0801C0
1800E0
1000E0
3000F0
FC03F8
ENDCHAR
STARTCHAR Aring
ENCODING 143
SWIDTH 733 0
DWIDTH 22 0
BBX 21 26 1 0
VVECTOR 12 26
SWIDTH1 0 -1100
DWIDTH1 0 -33
BITMAP 
003C00
006600
004200
004200
006600
003C00
000000
001000
003800
003800
007C00
005C00
00DC00
008E00
018E00
010700
030700
020380
060380
07FF80
0C01C0
0801C0
1800E0
1000E0
3000F0
FC03F8
ENDCHAR
STARTCHAR Eacute
ENCODING 144
SWIDTH 600 0
DWIDTH 18 0
BBX 17 26 1 0
VVECTOR 10 26
SWIDTH1 0 -1100
DWIDTH1 0 -33
BITMAP 
003000
007000
00E000
018000
020000
000000
000000
FFFF00
1C0300
1C0100
1C0100
1C0000
1C0000
1C0400
1C0400
1C0C00
1FFC00
1C0C00
1C0400
1C0400
1C0000
1C0080
1C0180
1C0300
1C0700
FFFE00
ENDCHAR
STARTCHAR ae
ENCODING 145
SWIDTH 667 0
DWIDTH 20 0
BBX 18 13 1 0
VVECTOR 10 26
SWIDTH1 0 -1100
DWIDTH1 0 -33
BITMAP 
1E1E00
737380
71C180
61C1C0
01FFC0
078000
1D8000
318000
618000
C1C040
C3E0C0
E6FF80
783E00
ENDCHAR
STARTCHAR AE
ENCODING 146
SWIDTH 900 0
DWIDTH 27 0
BBX 26 19 0 0
VVECTOR 13 26
SWIDTH1 0 -1100
DWIDTH1 0 -33
BITMAP 
00FFFF80
003E0180
002E0080
006E0080
004E0000
00CE0000
008E0200
018E0200
010E0600
030FFE00
020E0600
07FE0200
040E0200
0C0E0000
080E0040
180E00C0
100E0180
300E0380
FC7FFF00
ENDCHAR
STARTCHAR ocircumflex
ENCODING 147
SWIDTH 500 0
DWIDTH 15 0
BBX 13 20 1 0
VVECTOR 8 26
SWIDTH1 0 -1100
DWIDTH1 0 -33
BITMAP 
0200
0700
0D80
18C0
3060
0000
0000
0FC0
39F0
6070
6038
C038
C018
C018
C018
E018
E030
7030
7CE0
1F80
ENDCHAR
STARTCHAR odieresis
ENCODING 148
SWIDTH 500 0
DWIDTH 15 0
BBX 13 19 1 0
VVECTOR 8 26
SWIDTH1 0 -1100
DWIDTH1 0 -33
BITMAP 
39C0
39C0
39C0
0000
0000
0000
0FC0
39F0
6070
6038
C038
C018
C018
C018
E018
E030
7030
7CE0
1F80
ENDCHAR
STARTCHAR ograve
ENCODING 149
SWIDTH 500 0
DWIDTH 15 0
BBX 13 20 1 0
VVECTOR 8 26
SWIDTH1 0 -1100
DWIDTH1 0 -33
BITMAP 
1800
1C00
0E00
0300
0080
0000
0000
0FC0
39F0
6070
6038
C038
C018
C018
C018
E018
E030
7030
7CE0
1F80
ENDCHAR
STARTCHAR ucircumflex
ENCODING 150
SWIDTH 533 0
DWIDTH 16 0
BBX 14 20 1 0
VVECTOR 8 26
SWIDTH1 0 -1100
DWIDTH1 0 -33
BITMAP 
0200
0700
0D80
18C0
3060
0000
0000
F0F0
3030
3030
3030
3030
3030
3030
3030
3030
3070
38F0
3FBC
1E30
ENDCHAR
STARTCHAR ugrave
ENCODING 151
SWIDTH 533 0
DWIDTH 16 0
BBX 14 20 1 0
VVECTOR 8 26
SWIDTH1 0 -1100
DWIDTH1 0 -33
BITMAP 
3000
3800
1C00
0600
0100
0000
0000
F0F0
3030
3030
3030
3030
3030
3030
3030
3030
3070
38F0
3FBC
1E30
ENDCHAR
STARTCHAR ydieresis
ENCODING 152
SWIDTH 467 0
DWIDTH 14 0
BBX 14 25 0 -6
VVECTOR 7 26
SWIDTH1 0 -1100
DWIDTH1 0 -33
BITMAP 
1CE0
1CE0
1CE0
0000
0000
0000
FC7C
7010
3030
3820
1820
1860
1C40
0C40
0EC0
0680
0780
0700
0300
0200
0600
0400
6C00
F800
7000
ENDCHAR
STARTCHAR Odieresis
ENCODING 153
SWIDTH 733 0
DWIDTH 22 0
BBX 19 25 2 0
VVECTOR 12 26
SWIDTH1 0 -1100
DWIDTH1 0 -33
BITMAP 
039C00
039C00
039C00
000000
000000
000000
03F800
0F1E00
1C0700
380380
7001C0
7001C0
E000E0
E000E0
E000E0
E000E0
E000E0
E000E0
E000E0
7001C0
7001C0
380380
1C0700
0F1E00
03F800
ENDCHAR
STARTCHAR Udieresis
ENCODING 154
SWIDTH 733 0
DWIDTH 22 0
BBX 21 25 1 0
VVECTOR 12 26
SWIDTH1 0 -1100
DWIDTH1 0 -33
BITMAP 
01CE00
01CE00
01CE00
000000
000000
000000
FF87F8
1C00C0
1C00C0
1C00C0
1C00C0
1C00C0
1C00C0
1C00C0
1C00C0
1C00C0
1C00C0
1C00C0
1C00C0
1C00C0
1C00C0
0E0180
0E0180
078700
01FC00
ENDCHAR
STARTCHAR oslash
ENCODING 155
SWIDTH 500 0
DWIDTH 15 0
BBX 13 17 1 -2
VVECTOR 8 26
SWIDTH1 0 -1100
DWIDTH1 0 -33
BITMAP 
0030
0020
0FE0
39E0
60F0
61B0
C138
C318
C218
C618
E418
6C30
7830
3CE0
3F80
2000
6000
ENDCHAR
STARTCHAR sterling
ENCODING 156
SWIDTH 500 0
DWIDTH 15 0
BBX 13 19 1 0
VVECTOR 8 26
SWIDTH1 0 -1100
DWIDTH1 0 -33
BITMAP 
01F0
0738
0618
0E18
0E00
0E00
0E00
0E00
7FC0
0E00
0E00
0600
0600
0600
0C00
7C00
CF88
9BF8
70F0
ENDCHAR
STARTCHAR Oslash
ENCODING 157
SWIDTH 733 0
DWIDTH 22 0
BBX 19 23 2 -2
VVECTOR 12 26
SWIDTH1 0 -1100
DWIDTH1 0 -33
BITMAP 
000180
000180
03FB00
0F1E00
1C0700
380F80
7019C0
7019C0
E030E0
E060E0
E060E0
E0C0E0
E180E0
E180E0
E300E0
7601C0
7601C0
3C0380
1C0700
1F1E00
33F800
600000
600000
ENDCHAR
STARTCHAR multiply
ENCODING 158
SWIDTH 567 0
DWIDTH 17 0
BBX 15 15 1 0
VVECTOR 9 26
SWIDTH1 0 -1100
DWIDTH1 0 -33
BITMAP 
4004
E00E
701C
3838
1C70
0EE0
07C0
0380
07C0
0EE0
1C70
3838
701C
E00E
4004
ENDCHAR
STARTCHAR florin
ENCODING 159
SWIDTH 500 0
DWIDTH 15 0
BBX 14 26 0 -6
VVECTOR 7 26
SWIDTH1 0 -1100
DWIDTH1 0 -33
BITMAP 
0038
006C
00CC
00C0
0180
0180
0180
0380
1FF0
0380
0380
0300
0300
0300
0300
0700
0700
0700
0600
0600
0600
0C00
0C00
CC00
D800
7000
ENDCHAR
STARTCHAR aacute
ENCODING 160
SWIDTH 467 0
DWIDTH 14 0
BBX 12 20 1 0
VVECTOR 7 26
SWIDTH1 0 -1100
DWIDTH1 0 -33
BITMAP 
0180
0380
0700
0C00
1000
0000
0000
1F00
7180
70C0
60C0
00C0
01C0
0EC0
38C0
60C0
C0C0
C0C0
E3D0
7CE0
ENDCHAR
STARTCHAR iacute
ENCODING 161
SWIDTH 267 0
DWIDTH 8 0
BBX 7 20 1 0
VVECTOR 5 26
SWIDTH1 0 -1100
DWIDTH1 0 -33
BITMAP 
06
0E
1C
30
40
00
00
30
F0
30
30
30
30
30
30
30
30
30
30
FC
ENDCHAR
STARTCHAR oacute
ENCODING 162
SWIDTH 500 0
DWIDTH 15 0
BBX 13 20 1 0
VVECTOR 8 26
SWIDTH1 0 -1100
DWIDTH1 0 -33
BITMAP 
0060
00E0
01C0
0300
0400
0000
0000
0FC0
39F0
6070
6038
C038
C018
C018
C018
E018
E030
7030
7CE0
1F80
ENDCHAR
STARTCHAR uacute
ENCODING 163
SWIDTH 533 0
DWIDTH 16 0
BBX 14 20 1 0
VVECTOR 8 26
SWIDTH1 0 -1100
DWIDTH1 0 -33
BITMAP 
0060
00E0
01C0
0300
0400
0000
0000
F0F0
3030
3030
3030
3030
3030
3030
3030
3030
3070
38F0
3FBC
1E30
ENDCHAR
STARTCHAR ntilde
ENCODING 164
SWIDTH 533 0
DWIDTH 16 0
BBX 14 19 1 0
VVECTOR 8 26
SWIDTH1 0 -1100
DWIDTH1 0 -33
BITMAP 
0F10
1FF0
11E0
0000
0000
0000
31E0
F7F0
3C70
3830
3030
3030
3030
3030
3030
3030
3030
3030
FCFC
ENDCHAR
STARTCHAR Ntilde
ENCODING 165
SWIDTH 700 0
DWIDTH 21 0
BBX 20 25 1 0
VVECTOR 12 26
SWIDTH1 0 -1100
DWIDTH1 0 -33
BITMAP 
01E200
03FE00
023C00
000000
000000
000000
FC0FF0
3E0180
1F0180
1F0180
1B8180
1BC180
19C180
18E180
18F180
187980
183980
181D80
181D80
180F80
180780
180780
180380
180180
FF0080
ENDCHAR
STARTCHAR ordfeminine
ENCODING 166
SWIDTH 267 0
DWIDTH 8 0
BBX 7 12 1 7
VVECTOR 5 26
SWIDTH1 0 -1100
DWIDTH1 0 -33
BITMAP 
78
CC
0C
7C
CC
CC
CC
76
00
00
FE
FE
ENDCHAR
STARTCHAR ordmasculine
ENCODING 167
SWIDTH 300 0
DWIDTH 9 0
BBX 7 12 1 7
VVECTOR 5 26
SWIDTH1 0 -1100
DWIDTH1 0 -33
BITMAP 
38
6C
C6
C6
C6
C6
6C
38
00
00
FE
FE
ENDCHAR
STARTCHAR questiondown
ENCODING 168
SWIDTH 433 0
DWIDTH 13 0
BBX 10 19 2 0
VVECTOR 8 26
SWIDTH1 0 -1100
DWIDTH1 0 -33
BITMAP 
0C00
1E00
1E00
0C00
0000
0000
0C00
0C00
0C00
1800
3800
3000
7000
E080
E1C0
E1C0
E0C0
7180
3F00
ENDCHAR
STARTCHAR registered
ENCODING 169
SWIDTH 767 0
DWIDTH 23 0
BBX 21 21 1 -1
VVECTOR 12 26
SWIDTH1 0 -1100
DWIDTH1 0 -33
BITMAP 
00F800
07DF00
0E0380
1800C0
300060
63F830
618C30
418610
C18618
C18C18
81F808
C19C18
C18C18
418C10
618D30
63C630
300060
1800C0
0E0380
07DF00
00F800
ENDCHAR
STARTCHAR logicalnot
ENCODING 170
SWIDTH 567 0
DWIDTH 17 0
BBX 14 7 1 4
VVECTOR 8 26
SWIDTH1 0 -1100
DWIDTH1 0 -33
BITMAP 
FFFC
FFFC
000C
000C
000C
000C
000C
ENDCHAR
STARTCHAR onehalf
ENCODING 171
SWIDTH 733 0
DWIDTH 22 0
BBX 20 19 1 0
VVECTOR 11 26
SWIDTH1 0 -1100
DWIDTH1 0 -33
BITMAP 
100180
700300
B00300
300600
300C00
300C00
301800
303000
303380
3067C0
FCC860
00C860
018060
030040
030080
060100
0C0210
0C07E0
180FE0
ENDCHAR
STARTCHAR onequarter
ENCODING 172
SWIDTH 733 0
DWIDTH 22 0
BBX 20 19 1 0
VVECTOR 11 26
SWIDTH1 0 -1100
DWIDTH1 0 -33
BITMAP 
100180
700300
B00300
300600
300C00
300C00
301800
303000
3030C0
3061C0
FCC1C0
00C2C0
0184C0
0304C0
0308C0
060FF0
0C00C0
0C00C0
1800C0
ENDCHAR
STARTCHAR exclamdown
ENCODING 173
SWIDTH 333 0
DWIDTH 10 0
BBX 4 19 3 0
VVECTOR 5 26
SWIDTH1 0 -1100
DWIDTH1 0 -33
BITMAP 
60
F0
F0
60
00
00
60
60
60
60
60
60
F0
F0
F0
F0
F0
F0
60
ENDCHAR
STARTCHAR guillemotleft
ENCODING 174
SWIDTH 500 0
DWIDTH 15 0
BBX 12 11 1 1
VVECTOR 7 26
SWIDTH1 0 -1100
DWIDTH1 0 -33
BITMAP 
0410
0C30
1860
30C0
6180
E380
6180
30C0
1860
0C30
0410
ENDCHAR
STARTCHAR guillemotright
ENCODING 175
SWIDTH 500 0
DWIDTH 15 0
BBX 12 11 2 1
VVECTOR 9 26
SWIDTH1 0 -1100
DWIDTH1 0 -33
BITMAP 
8200
C300
6180
30C0
1860
1C70
1860
30C0
6180
C300
8200
ENDCHAR
STARTCHAR ltshade
ENCODING 176
SWIDTH 1000 0
DWIDTH 30 0
BBX 25 25 0 -2
VVECTOR 10 26
SWIDTH1 0 -1100
DWIDTH1 0 -33
BITMAP 
F83E0F80
F83E0F80
F83E0F80
F83E0F80
F83E0F80
00000000
00000000
00000000
00000000
00000000
F83E0F80
F83E0F80
F83E0F80
F83E0F80
F83E0F80
00000000
00000000
00000000
00000000
00000000
F83E0F80
F83E0F80
F83E0F80
F83E0F80
F83E0F80
ENDCHAR
STARTCHAR shade
ENCODING 177
SWIDTH 1000 0
DWIDTH 30 0
BBX 30 30 0 -7
VVECTOR 15 26
SWIDTH1 0 -1100
DWIDTH1 0 -33
BITMAP 
F83E0F80
F83E0F80
F83E0F80
F83E0F80
F83E0F80
07C1F07C
07C1F07C
07C1F07C
07C1F07C
07C1F07C
F83E0F80
F83E0F80
F83E0F80
F83E0F80
F83E0F80
07C1F07C
07C1F07C
07C1F07C
07C1F07C
07C1F07C
F83E0F80
F83E0F80
F83E0F80
F83E0F80
F83E0F80
07C1F07C
07C1F07C
07C1F07C
07C1F07C
07C1F07C
ENDCHAR
STARTCHAR dkshade
ENCODING 178
SWIDTH 1000 0
DWIDTH 30 0
BBX 30 30 0 -7
VVECTOR 15 26
SWIDTH1 0 -1100
DWIDTH1 0 -33
BITMAP 
FFFFFFFC
FFFFFFFC
FFFFFFFC
FFFFFFFC
FFFFFFFC
F83E0F80
F83E0F80
F83E0F80
F83E0F80
F83E0F80
FFFFFFFC
FFFFFFFC
FFFFFFFC
FFFFFFFC
FFFFFFFC
F83E0F80
F83E0F80
F83E0F80
F83E0F80
F83E0F80
FFFFFFFC
FFFFFFFC
FFFFFFFC
FFFFFFFC
FFFFFFFC
F83E0F80
F83E0F80
F83E0F80
F83E0F80
F83E0F80
ENDCHAR
STARTCHAR SF110000
ENCODING 179
SWIDTH 1000 0
DWIDTH 30 0
BBX 2 30 14 -7
VVECTOR 15 26
SWIDTH1 0 -1100
DWIDTH1 0 -33
BITMAP 
C0
C0
C0
C0
C0
C0
C0
C0
C0
C0
C0
C0
C0
C0
C0
C0
C0
C0
C0
C0
C0
C0
C0
C0
C0
C0
C0
C0
C0
C0
ENDCHAR
STARTCHAR SF090000
ENCODING 180
SWIDTH 1000 0
DWIDTH 30 0
BBX 16 30 0 -7
VVECTOR 1 26
SWIDTH1 0 -1100
DWIDTH1 0 -33
BITMAP 
0003
0003
0003
0003
0003
0003
0003
0003
0003
0003
0003
0003
0003
0003
FFFF
FFFF
0003
0003
0003
0003
0003
0003
0003
0003
0003
0003
0003
0003
0003
0003
ENDCHAR
STARTCHAR Aacute
ENCODING 181
SWIDTH 733 0
DWIDTH 22 0
BBX 21 26 1 0
VVECTOR 12 26
SWIDTH1 0 -1100
DWIDTH1 0 -33
BITMAP 
000600
000E00
001C00
003000
004000
000000
000000
001000
003800
003800
007C00
005C00
00DC00
008E00
018E00
010700
030700
020380
060380
07FF80
0C01C0
0801C0
1800E0
1000E0
3000F0
FC03F8
ENDCHAR
STARTCHAR Acircumflex
ENCODING 182
SWIDTH 733 0
DWIDTH 22 0
BBX 21 26 1 0
VVECTOR 12 26
SWIDTH1 0 -1100
DWIDTH1 0 -33
BITMAP 
001000
003800
006C00
00C600
018300
000000
000000
001000
003800
003800
007C00
005C00
00DC00
008E00
018E00
010700
030700
020380
060380
07FF80
0C01C0
0801C0
1800E0
1000E0
3000F0
FC03F8
ENDCHAR
STARTCHAR Agrave
ENCODING 183
SWIDTH 733 0
DWIDTH 22 0
BBX 21 26 1 0
VVECTOR 12 26
SWIDTH1 0 -1100
DWIDTH1 0 -33
BITMAP 
00C000
00E000
007000
001800
000400
000000
000000
001000
003800
003800
007C00
005C00
00DC00
008E00
018E00
010700
030700
020380
060380
07FF80
0C01C0
0801C0
1800E0
1000E0
3000F0
FC03F8
ENDCHAR
STARTCHAR copyright
ENCODING 184
SWIDTH 767 0
DWIDTH 23 0
BBX 21 21 1 -1
VVECTOR 12 26
SWIDTH1 0 -1100
DWIDTH1 0 -33
BITMAP 
00F800
07DF00
0E0380
1800C0
300060
607A30
61CE30
438610
C30218
C70018
870008
C70018
C30018
438210
61CE30
607830
300060
1800C0
0E0380
07DF00
00F800
ENDCHAR
STARTCHAR SF230000
ENCODING 185
SWIDTH 1000 0
DWIDTH 30 0
BBX 18 30 0 -7
VVECTOR 3 26
SWIDTH1 0 -1100
DWIDTH1 0 -33
BITMAP 
0018C0
0018C0
0018C0
0018C0
0018C0
0018C0
0018C0
0018C0
0018C0
0018C0
0018C0
FFF8C0
FFF8C0
0000C0
0000C0
0000C0
FFF8C0
FFF8C0
0018C0
0018C0
0018C0
0018C0
0018C0
0018C0
0018C0
0018C0
0018C0
0018C0
0018C0
0018C0
ENDCHAR
STARTCHAR SF240000
ENCODING 186
SWIDTH 1000 0
DWIDTH 30 0
BBX 7 30 11 -7
VVECTOR 14 26
SWIDTH1 0 -1100
DWIDTH1 0 -33
BITMAP 
C6
C6
C6
C6
C6
C6
C6
C6
C6
C6
C6
C6
C6
C6
C6
C6
C6
C6
C6
C6
C6
C6
C6
C6
C6
C6
C6
C6
C6
C6
ENDCHAR
STARTCHAR SF250000
ENCODING 187
SWIDTH 1000 0
DWIDTH 30 0
BBX 18 19 0 -7
VVECTOR 3 26
SWIDTH1 0 -1100
DWIDTH1 0 -33
BITMAP 
FFFFC0
FFFFC0
0000C0
0000C0
0000C0
FFF8C0
FFF8C0
0018C0
0018C0
0018C0
0018C0
0018C0
0018C0
0018C0
0018C0
0018C0
0018C0
0018C0
0018C0
ENDCHAR
STARTCHAR SF260000
ENCODING 188
SWIDTH 1000 0
DWIDTH 30 0
BBX 18 18 0 5
VVECTOR 3 26
SWIDTH1 0 -1100
DWIDTH1 0 -33
BITMAP 
0018C0
0018C0
0018C0
0018C0
0018C0
0018C0
0018C0
0018C0
0018C0
0018C0
0018C0
FFF8C0
FFF8C0
0000C0
0000C0
0000C0
FFFFC0
FFFFC0
ENDCHAR
STARTCHAR cent
ENCODING 189
SWIDTH 500 0
DWIDTH 15 0
BBX 11 19 2 -3
VVECTOR 8 26
SWIDTH1 0 -1100
DWIDTH1 0 -33
BITMAP 
0020
0020
0040
0FC0
38E0
60E0
6160
C100
C200
C200
C400
E400
E820
7860
7FC0
1F00
2000
2000
4000
ENDCHAR
STARTCHAR yen
ENCODING 190
SWIDTH 500 0
DWIDTH 15 0
BBX 15 19 0 0
VVECTOR 8 26
SWIDTH1 0 -1100
DWIDTH1 0 -33
BITMAP 
FC3E
7008
3818
3810
1C30
1C20
FE7E
0E60
07C0
07C0
FFFE
0380
0380
0380
0380
0380
0380
0380
0FE0
ENDCHAR
STARTCHAR SF030000
ENCODING 191
SWIDTH 1000 0
DWIDTH 30 0
BBX 16 16 0 -7
VVECTOR 1 26
SWIDTH1 0 -1100
DWIDTH1 0 -33
BITMAP 
FFFF
FFFF
0003
0003
0003
0003
0003
0003
0003
0003
0003
0003
0003
0003
0003
0003
ENDCHAR
STARTCHAR SF020000
ENCODING 192
SWIDTH 1000 0
DWIDTH 30 0
BBX 16 16 14 7
VVECTOR 29 26
SWIDTH1 0 -1100
DWIDTH1 0 -33
BITMAP 
C000
C000
C000
C000
C000
C000
C000
C000
C000
C000
C000
C000
C000
C000
FFFF
FFFF
ENDCHAR
STARTCHAR SF070000
ENCODING 193
SWIDTH 1000 0
DWIDTH 30 0
BBX 30 16 0 7
VVECTOR 15 26
SWIDTH1 0 -1100
DWIDTH1 0 -33
BITMAP 
00030000
00030000
00030000
00030000
00030000
00030000
00030000
00030000
00030000
00030000
00030000
00030000
00030000
00030000
FFFFFFFC
FFFFFFFC
ENDCHAR
STARTCHAR SF060000
ENCODING 194
SWIDTH 1000 0
DWIDTH 30 0
BBX 30 16 0 -7
VVECTOR 15 26
SWIDTH1 0 -1100
DWIDTH1 0 -33
BITMAP 
FFFFFFFC
FFFFFFFC
00030000
00030000
00030000
00030000
00030000
00030000
00030000
00030000
00030000
00030000
00030000
00030000
00030000
00030000
ENDCHAR
STARTCHAR SF080000
ENCODING 195
SWIDTH 1000 0
DWIDTH 30 0
BBX 16 30 14 -7
VVECTOR 29 26
SWIDTH1 0 -1100
DWIDTH1 0 -33
BITMAP 
C000
C000
C000
C000
C000
C000
C000
C000
C000
C000
C000
C000
C000
C000
FFFF
FFFF
C000
C000
C000
C000
C000
C000
C000
C000
C000
C000
C000
C000
C000
C000
ENDCHAR
STARTCHAR SF100000
ENCODING 196
SWIDTH 1000 0
DWIDTH 30 0
BBX 30 2 0 7
VVECTOR 15 26
SWIDTH1 0 -1100
DWIDTH1 0 -33
BITMAP 
FFFFFFFC
FFFFFFFC
ENDCHAR
STARTCHAR SF050000
ENCODING 197
SWIDTH 1000 0
DWIDTH 30 0
BBX 30 30 0 -7
VVECTOR 15 26
SWIDTH1 0 -1100
DWIDTH1 0 -33
BITMAP 
00030000
00030000
00030000
00030000
00030000
00030000
00030000
00030000
00030000
00030000
00030000
00030000
00030000
00030000
FFFFFFFC
FFFFFFFC
00030000
00030000
00030000
00030000
00030000
00030000
00030000
00030000
00030000
00030000
00030000
00030000
00030000
00030000
ENDCHAR
STARTCHAR atilde
ENCODING 198
SWIDTH 467 0
DWIDTH 14 0
BBX 12 19 1 0
VVECTOR 7 26
SWIDTH1 0 -1100
DWIDTH1 0 -33
BITMAP 
3C40
7FC0
4780
0000
0000
0000
1F00
7180
70C0
60C0
00C0
01C0
0EC0
38C0
60C0
C0C0
C0C0
E3D0
7CE0
ENDCHAR
STARTCHAR Atilde
ENCODING 199
SWIDTH 733 0
DWIDTH 22 0
BBX 21 25 1 0
VVECTOR 12 26
SWIDTH1 0 -1100
DWIDTH1 0 -33
BITMAP 
00F100
01FF00
011E00
000000
000000
000000
001000
003800
003800
007C00
005C00
00DC00
008E00
018E00
010700
030700
020380
060380
07FF80
0C01C0
0801C0
1800E0
1000E0
3000F0
FC03F8
ENDCHAR
STARTCHAR SF380000
ENCODING 200
SWIDTH 1000 0
DWIDTH 30 0
BBX 19 18 11 5
VVECTOR 26 26
SWIDTH1 0 -1100
DWIDTH1 0 -33
BITMAP 
C60000
C60000
C60000
C60000
C60000
C60000
C60000
C60000
C60000
C60000
C60000
C7FFE0
C7FFE0
C00000
C00000
C00000
FFFFE0
FFFFE0
ENDCHAR
STARTCHAR SF390000
ENCODING 201
SWIDTH 1000 0
DWIDTH 30 0
BBX 19 19 11 -7
VVECTOR 26 26
SWIDTH1 0 -1100
DWIDTH1 0 -33
BITMAP 
FFFFE0
FFFFE0
C00000
C00000
C00000
C7FFE0
C7FFE0
C60000
C60000
C60000
C60000
C60000
C60000
C60000
C60000
C60000
C60000
C60000
C60000
ENDCHAR
STARTCHAR SF400000
ENCODING 202
SWIDTH 1000 0
DWIDTH 30 0
BBX 30 18 0 5
VVECTOR 15 26
SWIDTH1 0 -1100
DWIDTH1 0 -33
BITMAP 
0018C000
0018C000
0018C000
0018C000
0018C000
0018C000
0018C000
0018C000
0018C000
0018C000
0018C000
FFF8FFFC
FFF8FFFC
00000000
00000000
00000000
FFFFFFFC
FFFFFFFC
ENDCHAR
STARTCHAR SF410000
ENCODING 203
SWIDTH 1000 0
DWIDTH 30 0
BBX 30 19 0 -7
VVECTOR 15 26
SWIDTH1 0 -1100
DWIDTH1 0 -33
BITMAP 
FFFFFFFC
FFFFFFFC
00000000
00000000
00000000
FFF8FFFC
FFF8FFFC
0018C000
0018C000
0018C000
0018C000
0018C000
0018C000
0018C000
0018C000
0018C000
0018C000
0018C000
0018C000
ENDCHAR
STARTCHAR SF420000
ENCODING 204
SWIDTH 1000 0
DWIDTH 30 0
BBX 19 30 11 -7
VVECTOR 26 26
SWIDTH1 0 -1100
DWIDTH1 0 -33
BITMAP 
C60000
C60000
C60000
C60000
C60000
C60000
C60000
C60000
C60000
C60000
C60000
C7FFE0
C7FFE0
C00000
C00000
C00000
C7FFE0
C7FFE0
C60000
C60000
C60000
C60000
C60000
C60000
C60000
C60000
C60000
C60000
C60000
C60000
ENDCHAR
STARTCHAR SF430000
ENCODING 205
SWIDTH 1000 0
DWIDTH 30 0
BBX 30 7 0 5
VVECTOR 15 26
SWIDTH1 0 -1100
DWIDTH1 0 -33
BITMAP 
FFFFFFFC
FFFFFFFC
00000000
00000000
00000000
FFFFFFFC
FFFFFFFC
ENDCHAR
STARTCHAR SF440000
ENCODING 206
SWIDTH 1000 0
DWIDTH 30 0
BBX 30 30 0 -7
VVECTOR 15 26
SWIDTH1 0 -1100
DWIDTH1 0 -33
BITMAP 
0018C000
0018C000
0018C000
0018C000
0018C000
0018C000
0018C000
0018C000
0018C000
0018C000
0018C000
FFF8FFFC
FFF8FFFC
00000000
00000000
00000000
FFF8FFFC
FFF8FFFC
0018C000
0018C000
0018C000
0018C000
0018C000
0018C000
0018C000
0018C000
0018C000
0018C000
0018C000
0018C000
ENDCHAR
STARTCHAR currency
ENCODING 207
SWIDTH 500 0
DWIDTH 15 0
BBX 15 15 0 4
VVECTOR 8 26
SWIDTH1 0 -1100
DWIDTH1 0 -33
BITMAP 
4004
E00E
739C
3FF8
1C70
1830
3018
3018
3018
1830
1C70
3FF8
739C
E00E
4004
ENDCHAR
STARTCHAR eth
ENCODING 208
SWIDTH 500 0
DWIDTH 15 0
BBX 13 19 1 0
VVECTOR 8 26
SWIDTH1 0 -1100
DWIDTH1 0 -33
BITMAP 
6030
38E0
0D80
0F00
3980
60C0
0FE0
39F0
6070
6038
C038
C018
C018
C018
E018
E030
7030
7CE0
1F80
ENDCHAR
STARTCHAR Eth
ENCODING 209
SWIDTH 733 0
DWIDTH 22 0
BBX 20 19 1 0
VVECTOR 11 26
SWIDTH1 0 -1100
DWIDTH1 0 -33
BITMAP 
FFFC00
1C0F00
1C0380
1C01C0
1C00E0
1C00E0
1C0070
1C0070
1C0070
FFE070
1C0070
1C0070
1C0070
1C00E0
1C00E0
1C01C0
1C0380
1C0F00
FFFC00
ENDCHAR
STARTCHAR Ecircumflex
ENCODING 210
SWIDTH 600 0
DWIDTH 18 0
BBX 17 26 1 0
VVECTOR 10 26
SWIDTH1 0 -1100
DWIDTH1 0 -33
BITMAP 
008000
01C000
036000
063000
0C1800
000000
000000
FFFF00
1C0300
1C0100
1C0100
1C0000
1C0000
1C0400
1C0400
1C0C00
1FFC00
1C0C00
1C0400
1C0400
1C0000
1C0080
1C0180
1C0300
1C0700
FFFE00
ENDCHAR
STARTCHAR Edieresis
ENCODING 211
SWIDTH 600 0
DWIDTH 18 0
BBX 17 24 1 0
VVECTOR 10 26
SWIDTH1 0 -1100
DWIDTH1 0 -33
BITMAP 
073800
073800
073800
000000
000000
FFFF00
1C0300
1C0100
1C0100
1C0000
1C0000
1C0400
1C0400
1C0C00
1FFC00
1C0C00
1C0400
1C0400
1C0000
1C0080
1C0180
1C0300
1C0700
FFFE00
ENDCHAR
STARTCHAR Egrave
ENCODING 212
SWIDTH 600 0
DWIDTH 18 0
BBX 17 26 1 0
VVECTOR 10 26
SWIDTH1 0 -1100
DWIDTH1 0 -33
BITMAP 
0C0000
0E0000
070000
018000
004000
000000
000000
FFFF00
1C0300
1C0100
1C0100
1C0000
1C0000
1C0400
1C0400
1C0C00
1FFC00
1C0C00
1C0400
1C0400
1C0000
1C0080
1C0180
1C0300
1C0700
FFFE00
ENDCHAR
STARTCHAR Euro
ENCODING 213
SWIDTH 267 0
DWIDTH 8 0
BBX 6 13 1 0
VVECTOR 4 26
SWIDTH1 0 -1100
DWIDTH1 0 -33
BITMAP 
30
F0
30
30
30
30
30
30
30
30
30
30
FC
ENDCHAR
STARTCHAR Iacute
ENCODING 214
SWIDTH 333 0
DWIDTH 10 0
BBX 9 26 1 0
VVECTOR 6 26
SWIDTH1 0 -1100
DWIDTH1 0 -33
BITMAP 
0300
0700
0E00
1800
2000
0000
0000
FF80
1C00
1C00
1C00
1C00
1C00
1C00
1C00
1C00
1C00
1C00
1C00
1C00
1C00
1C00
1C00
1C00
1C00
FF80
ENDCHAR
STARTCHAR Icircumflex
ENCODING 215
SWIDTH 333 0
DWIDTH 10 0
BBX 9 26 1 0
VVECTOR 6 26
SWIDTH1 0 -1100
DWIDTH1 0 -33
BITMAP 
0800
1C00
3600
6300
C180
0000
0000
FF80
1C00
1C00
1C00
1C00
1C00
1C00
1C00
1C00
1C00
1C00
1C00
1C00
1C00
1C00
1C00
1C00
1C00
FF80
ENDCHAR
STARTCHAR Idieresis
ENCODING 216
SWIDTH 333 0
DWIDTH 10 0
BBX 9 25 1 0
VVECTOR 6 26
SWIDTH1 0 -1100
DWIDTH1 0 -33
BITMAP 
7380
7380
7380
0000
0000
0000
FF80
1C00
1C00
1C00
1C00
1C00
1C00
1C00
1C00
1C00
1C00
1C00
1C00
1C00
1C00
1C00
1C00
1C00
FF80
ENDCHAR
STARTCHAR SF040000
ENCODING 217
SWIDTH 1000 0
DWIDTH 30 0
BBX 16 16 0 7
VVECTOR 1 26
SWIDTH1 0 -1100
DWIDTH1 0 -33
BITMAP 
0003
0003
0003
0003
0003
0003
0003
0003
0003
0003
0003
0003
0003
0003
FFFF
FFFF
ENDCHAR
STARTCHAR SF010000
ENCODING 218
SWIDTH 1000 0
DWIDTH 30 0
BBX 16 16 14 -7
VVECTOR 29 26
SWIDTH1 0 -1100
DWIDTH1 0 -33
BITMAP 
FFFF
FFFF
C000
C000
C000
C000
C000
C000
C000
C000
C000
C000
C000
C000
C000
C000
ENDCHAR
STARTCHAR block
ENCODING 219
SWIDTH 1000 0
DWIDTH 30 0
BBX 30 30 0 -7
VVECTOR 15 26
SWIDTH1 0 -1100
DWIDTH1 0 -33
BITMAP 
FFFFFFFC
FFFFFFFC
FFFFFFFC
FFFFFFFC
FFFFFFFC
FFFFFFFC
FFFFFFFC
FFFFFFFC
FFFFFFFC
FFFFFFFC
FFFFFFFC
FFFFFFFC
FFFFFFFC
FFFFFFFC
FFFFFFFC
FFFFFFFC
FFFFFFFC
FFFFFFFC
FFFFFFFC
FFFFFFFC
FFFFFFFC
FFFFFFFC
FFFFFFFC
FFFFFFFC
FFFFFFFC
FFFFFFFC
FFFFFFFC
FFFFFFFC
FFFFFFFC
FFFFFFFC
ENDCHAR
STARTCHAR dnblock
ENCODING 220
SWIDTH 1000 0
DWIDTH 30 0
BBX 30 15 0 -7
VVECTOR 15 26
SWIDTH1 0 -1100
DWIDTH1 0 -33
BITMAP 
FFFFFFFC
FFFFFFFC
FFFFFFFC
FFFFFFFC
FFFFFFFC
FFFFFFFC
FFFFFFFC
FFFFFFFC
FFFFFFFC
FFFFFFFC
FFFFFFFC
FFFFFFFC
FFFFFFFC
FFFFFFFC
FFFFFFFC
ENDCHAR
STARTCHAR brokenbar
ENCODING 221
SWIDTH 200 0
DWIDTH 6 0
BBX 2 26 2 -5
VVECTOR 3 26
SWIDTH1 0 -1100
DWIDTH1 0 -33
BITMAP 
C0
C0
C0
C0
C0
C0
C0
C0
C0
C0
C0
00
00
00
00
C0
C0
C0
C0
C0
C0
C0
C0
C0
C0
C0
ENDCHAR
STARTCHAR Igrave
ENCODING 222
SWIDTH 333 0
DWIDTH 10 0
BBX 9 26 1 0
VVECTOR 6 26
SWIDTH1 0 -1100
DWIDTH1 0 -33
BITMAP 
C000
E000
7000
1800
0400
0000
0000
FF80
1C00
1C00
1C00
1C00
1C00
1C00
1C00
1C00
1C00
1C00
1C00
1C00
1C00
1C00
1C00
1C00
1C00
FF80
ENDCHAR
STARTCHAR upblock
ENCODING 223
SWIDTH 1000 0
DWIDTH 30 0
BBX 30 15 0 8
VVECTOR 15 26
SWIDTH1 0 -1100
DWIDTH1 0 -33
BITMAP 
FFFFFFFC
FFFFFFFC
FFFFFFFC
FFFFFFFC
FFFFFFFC
FFFFFFFC
FFFFFFFC
FFFFFFFC
FFFFFFFC
FFFFFFFC
FFFFFFFC
FFFFFFFC
FFFFFFFC
FFFFFFFC
FFFFFFFC
ENDCHAR
STARTCHAR Oacute
ENCODING 224
SWIDTH 733 0
DWIDTH 22 0
BBX 19 26 2 0
VVECTOR 12 26
SWIDTH1 0 -1100
DWIDTH1 0 -33
BITMAP 
000C00
001C00
003800
006000
008000
000000
000000
03F800
0F1E00
1C0700
380380
7001C0
7001C0
E000E0
E000E0
E000E0
E000E0
E000E0
E000E0
E000E0
7001C0
7001C0
380380
1C0700
0F1E00
03F800
ENDCHAR
STARTCHAR germandbls
ENCODING 225
SWIDTH 500 0
DWIDTH 15 0
BBX 14 19 0 0
VVECTOR 7 26
SWIDTH1 0 -1100
DWIDTH1 0 -33
BITMAP 
07C0
1C70
1838
3018
3018
3018
3030
3060
33C0
3060
3038
3018
300C
300C
300C
300C
3618
3738
F3E0
ENDCHAR
STARTCHAR Ocircumflex
ENCODING 226
SWIDTH 733 0
DWIDTH 22 0
BBX 19 26 2 0
VVECTOR 12 26
SWIDTH1 0 -1100
DWIDTH1 0 -33
BITMAP 
004000
00E000
01B000
031800
060C00
000000
000000
03F800
0F1E00
1C0700
380380
7001C0
7001C0
E000E0
E000E0
E000E0
E000E0
E000E0
E000E0
E000E0
7001C0
7001C0
380380
1C0700
0F1E00
03F800
ENDCHAR
STARTCHAR Ograve
ENCODING 227
SWIDTH 733 0
DWIDTH 22 0
BBX 19 26 2 0
VVECTOR 12 26
SWIDTH1 0 -1100
DWIDTH1 0 -33
BITMAP 
060000
070000
038000
00C000
002000
000000
000000
03F800
0F1E00
1C0700
380380
7001C0
7001C0
E000E0
E000E0
E000E0
E000E0
E000E0
E000E0
E000E0
7001C0
7001C0
380380
1C0700
0F1E00
03F800
ENDCHAR
STARTCHAR otilde
ENCODING 228
SWIDTH 500 0
DWIDTH 15 0
BBX 13 19 1 0
VVECTOR 8 26
SWIDTH1 0 -1100
DWIDTH1 0 -33
BITMAP 
1E20
3FE0
23C0
0000
0000
0000
0FC0
39F0
6070
6038
C038
C018
C018
C018
E018
E030
7030
7CE0
1F80
ENDCHAR
STARTCHAR Otilde
ENCODING 229
SWIDTH 733 0
DWIDTH 22 0
BBX 19 25 2 0
VVECTOR 12 26
SWIDTH1 0 -1100
DWIDTH1 0 -33
BITMAP 
03C400
07FC00
047800
000000
000000
000000
03F800
0F1E00
1C0700
380380
7001C0
7001C0
E000E0
E000E0
E000E0
E000E0
E000E0
E000E0
E000E0
7001C0
7001C0
380380
1C0700
0F1E00
03F800
ENDCHAR
STARTCHAR mu
ENCODING 230
SWIDTH 500 0
DWIDTH 15 0
BBX 15 20 0 -7
VVECTOR 8 26
SWIDTH1 0 -1100
DWIDTH1 0 -33
BITMAP 
0606
0E0E
0E0E
0C0C
1C1C
1C1C
1818
1838
3838
3870
38F0
39BA
6F1C
6000
6000
6000
E000
E000
E000
C000
ENDCHAR
STARTCHAR thorn
ENCODING 231
SWIDTH 533 0
DWIDTH 16 0
BBX 14 25 1 -6
VVECTOR 8 26
SWIDTH1 0 -1100
DWIDTH1 0 -33
BITMAP 
3000
F000
3000
3000
3000
3000
31E0
37F8
3C38
381C
301C
300C
300C
300C
300C
3018
3818
3E70
33C0
3000
3000
3000
3000
3000
FC00
ENDCHAR
STARTCHAR Thorn
ENCODING 232
SWIDTH 600 0
DWIDTH 18 0
BBX 17 19 1 0
VVECTOR 10 26
SWIDTH1 0 -1100
DWIDTH1 0 -33
BITMAP 
FF8000
1C0000
1C0000
1C0000
1FF800
1C0E00
1C0700
1C0380
1C0380
1C0380
1C0380
1C0700
1C0E00
1FF800
1C0000
1C0000
1C0000
1C0000
FF8000
ENDCHAR
STARTCHAR Uacute
ENCODING 233
SWIDTH 733 0
DWIDTH 22 0
BBX 21 26 1 0
VVECTOR 12 26
SWIDTH1 0 -1100
DWIDTH1 0 -33
BITMAP 
000600
000E00
001C00
003000
004000
000000
000000
FF87F8
1C00C0
1C00C0
1C00C0
1C00C0
1C00C0
1C00C0
1C00C0
1C00C0
1C00C0
1C00C0
1C00C0
1C00C0
1C00C0
1C00C0
0E0180
0E0180
078700
01FC00
ENDCHAR
STARTCHAR Ucircumflex
ENCODING 234
SWIDTH 733 0
DWIDTH 22 0
BBX 21 26 1 0
VVECTOR 12 26
SWIDTH1 0 -1100
DWIDTH1 0 -33
BITMAP 
001000
003800
006C00
00C600
018300
000000
000000
FF87F8
1C00C0
1C00C0
1C00C0
1C00C0
1C00C0
1C00C0
1C00C0
1C00C0
1C00C0
1C00C0
1C00C0
1C00C0
1C00C0
1C00C0
0E0180
0E0180
078700
01FC00
ENDCHAR
STARTCHAR Ugrave
ENCODING 235
SWIDTH 733 0
DWIDTH 22 0
BBX 21 26 1 0
VVECTOR 12 26
SWIDTH1 0 -1100
DWIDTH1 0 -33
BITMAP 
018000
01C000
00E000
003000
000800
000000
000000
FF87F8
1C00C0
1C00C0
1C00C0
1C00C0
1C00C0
1C00C0
1C00C0
1C00C0
1C00C0
1C00C0
1C00C0
1C00C0
1C00C0
1C00C0
0E0180
0E0180
078700
01FC00
ENDCHAR
STARTCHAR yacute
ENCODING 236
SWIDTH 467 0
DWIDTH 14 0
BBX 14 26 0 -6
VVECTOR 7 26
SWIDTH1 0 -1100
DWIDTH1 0 -33
BITMAP 
0060
00E0
01C0
0300
0400
0000
0000
FC7C
7010
3030
3820
1820
1860
1C40
0C40
0EC0
0680
0780
0700
0300
0200
0600
0400
6C00
F800
7000
ENDCHAR
STARTCHAR Yacute
ENCODING 237
SWIDTH 700 0
DWIDTH 21 0
BBX 20 26 1 0
VVECTOR 12 26
SWIDTH1 0 -1100
DWIDTH1 0 -33
BITMAP 
000600
000E00
001C00
003000
004000
000000
000000
FF07F0
3C00C0
1C0180
0E0100
0F0300
070200
038600
03C400
01CC00
00F800
00F800
007000
007000
007000
007000
007000
007000
007000
03FE00
ENDCHAR
STARTCHAR macron
ENCODING 238
SWIDTH 500 0
DWIDTH 15 0
BBX 15 2 0 21
VVECTOR 8 26
SWIDTH1 0 -1100
DWIDTH1 0 -33
BITMAP 
FFFE
FFFE
ENDCHAR
STARTCHAR acute
ENCODING 239
SWIDTH 333 0
DWIDTH 10 0
BBX 6 5 3 18
VVECTOR 7 26
SWIDTH1 0 -1100
DWIDTH1 0 -33
BITMAP 
0C
1C
38
60
80
ENDCHAR
STARTCHAR uni00AD
ENCODING 240
SWIDTH 333 0
DWIDTH 10 0
BBX 7 2 2 6
VVECTOR 6 26
SWIDTH1 0 -1100
DWIDTH1 0 -33
BITMAP 
FE
FE
ENDCHAR
STARTCHAR plusminus
ENCODING 241
SWIDTH 567 0
DWIDTH 17 0
BBX 14 17 2 0
VVECTOR 10 26
SWIDTH1 0 -1100
DWIDTH1 0 -33
BITMAP 
0300
0300
0300
0300
0300
FFFC
FFFC
0300
0300
0300
0300
0300
0000
0000
0000
FFFC
FFFC
ENDCHAR
STARTCHAR underscoredbl
ENCODING 242
SWIDTH 500 0
DWIDTH 15 0
BBX 15 6 0 -7
VVECTOR 8 26
SWIDTH1 0 -1100
DWIDTH1 0 -33
BITMAP 
FFFE
FFFE
0000
0000
FFFE
FFFE
ENDCHAR
STARTCHAR threequarters
ENCODING 243
SWIDTH 733 0
DWIDTH 22 0
BBX 20 19 1 0
VVECTOR 11 26
SWIDTH1 0 -1100
DWIDTH1 0 -33
BITMAP 
3C0180
6E0300
860300
040600
0C0C00
3E0C00
071800
033000
0330C0
C661C0
78C1C0
00C2C0
0184C0
0304C0
0308C0
060FF0
0C00C0
0C00C0
1800C0
ENDCHAR
STARTCHAR paragraph
ENCODING 244
SWIDTH 467 0
DWIDTH 14 0
BBX 14 19 0 0
VVECTOR 7 26
SWIDTH1 0 -1100
DWIDTH1 0 -33
BITMAP 
1FFC
7E30
7E30
FE30
FE30
FE30
FE30
7E30
7E30
1E30
0630
0630
0630
0630
0630
0630
0630
0630
0630
ENDCHAR
STARTCHAR section
ENCODING 245
SWIDTH 500 0
DWIDTH 15 0
BBX 12 25 2 -6
VVECTOR 9 26
SWIDTH1 0 -1100
DWIDTH1 0 -33
BITMAP 
0F80
38C0
30E0
71E0
71C0
3800
3C00
1F00
3F80
63C0
C1E0
C0F0
E070
F030
7830
3C60
1FC0
0F80
03C0
01C0
38E0
78E0
70C0
31C0
1F00
ENDCHAR
STARTCHAR divide
ENCODING 246
SWIDTH 567 0
DWIDTH 17 0
BBX 14 14 2 0
VVECTOR 10 26
SWIDTH1 0 -1100
DWIDTH1 0 -33
BITMAP 
0300
0780
0780
0300
0000
0000
FFFC
FFFC
0000
0000
0300
0780
0780
0300
ENDCHAR
STARTCHAR cedilla
ENCODING 247
SWIDTH 333 0
DWIDTH 10 0
BBX 7 7 2 -7
VVECTOR 6 26
SWIDTH1 0 -1100
DWIDTH1 0 -33
BITMAP 
30
30
3C
06
06
C6
7C
ENDCHAR
STARTCHAR degree
ENCODING 248
SWIDTH 400 0
DWIDTH 12 0
BBX 8 8 2 11
VVECTOR 6 26
SWIDTH1 0 -1100
DWIDTH1 0 -33
BITMAP 
3C
66
C3
C3
C3
C3
66
3C
ENDCHAR
STARTCHAR dieresis
ENCODING 249
SWIDTH 333 0
DWIDTH 10 0
BBX 8 3 1 19
VVECTOR 5 26
SWIDTH1 0 -1100
DWIDTH1 0 -33
BITMAP 
E7
E7
E7
ENDCHAR
STARTCHAR periodcentered
ENCODING 250
SWIDTH 233 0
DWIDTH 7 0
BBX 4 4 2 8
VVECTOR 5 26
SWIDTH1 0 -1100
DWIDTH1 0 -33
BITMAP 
60
F0
F0
60
ENDCHAR
STARTCHAR uni00B9
ENCODING 251
SWIDTH 300 0
DWIDTH 9 0
BBX 6 11 2 8
VVECTOR 6 26
SWIDTH1 0 -1100
DWIDTH1 0 -33
BITMAP 
10
70
B0
30
30
30
30
30
30
30
FC
ENDCHAR
STARTCHAR uni00B3
ENCODING 252
SWIDTH 300 0
DWIDTH 9 0
BBX 8 11 1 8
VVECTOR 6 26
SWIDTH1 0 -1100
DWIDTH1 0 -33
BITMAP 
3C
6E
86
04
0C
3E
07
03
03
C6
78
ENDCHAR
STARTCHAR uni00B2
ENCODING 253
SWIDTH 300 0
DWIDTH 9 0
BBX 8 11 1 8
VVECTOR 6 26
SWIDTH1 0 -1100
DWIDTH1 0 -33
BITMAP 
38
7C
86
86
06
04
08
10
21
7E
FE
ENDCHAR
STARTCHAR filledbox
ENCODING 254
SWIDTH 733 0
DWIDTH 22 0
BBX 20 20 1 -2
VVECTOR 11 26
SWIDTH1 0 -1100
DWIDTH1 0 -33
BITMAP 
FFFFF0
FFFFF0
FFFFF0
FFFFF0
FFFFF0
FFFFF0
FFFFF0
FFFFF0
FFFFF0
FFFFF0
FFFFF0
FFFFF0
FFFFF0
FFFFF0
FFFFF0
FFFFF0
FFFFF0
FFFFF0
FFFFF0
FFFFF0
ENDCHAR
STARTCHAR uni00A0
ENCODING 255
SWIDTH 233 0
DWIDTH 7 0
BBX 0 0 7 26
VVECTOR 11 26
SWIDTH1 0 -1100
DWIDTH1 0 -33
BITMAP 
ENDCHAR
STARTCHAR peseta
ENCODING 256
SWIDTH 1133 0
DWIDTH 34 0
BBX 32 19 1 0
VVECTOR 17 26
SWIDTH1 0 -1100
DWIDTH1 0 -33
BITMAP 
FF800000
38E00000
38704000
38384000
3838C000
3839C000
383BF87A
3839C0CE
3871C186
38E1C182
3F81C1E0
3801C0F0
3801C03C
3801C01E
3801C107
3801C503
3801C583
3801CDE6
FF00F93C
ENDCHAR
STARTCHAR revlogicalnot
ENCODING 257
SWIDTH 567 0
DWIDTH 17 0
BBX 14 7 2 4
VVECTOR 10 26
SWIDTH1 0 -1100
DWIDTH1 0 -33
BITMAP 
FFFC
FFFC
C000
C000
C000
C000
C000
ENDCHAR
STARTCHAR SF190000
ENCODING 258
SWIDTH 1000 0
DWIDTH 30 0
BBX 16 30 0 -7
VVECTOR 1 26
SWIDTH1 0 -1100
DWIDTH1 0 -33
BITMAP 
0003
0003
0003
0003
0003
0003
0003
0003
0003
0003
0003
FFFF
FFFF
0003
0003
0003
FFFF
FFFF
0003
0003
0003
0003
0003
0003
0003
0003
0003
0003
0003
0003
ENDCHAR
STARTCHAR SF200000
ENCODING 259
SWIDTH 1000 0
DWIDTH 30 0
BBX 18 30 0 -7
VVECTOR 3 26
SWIDTH1 0 -1100
DWIDTH1 0 -33
BITMAP 
0018C0
0018C0
0018C0
0018C0
0018C0
0018C0
0018C0
0018C0
0018C0
0018C0
0018C0
0018C0
0018C0
0018C0
FFF8C0
FFF8C0
0018C0
0018C0
0018C0
0018C0
0018C0
0018C0
0018C0
0018C0
0018C0
0018C0
0018C0
0018C0
0018C0
0018C0
ENDCHAR
STARTCHAR SF210000
ENCODING 260
SWIDTH 1000 0
DWIDTH 30 0
BBX 18 16 0 -7
VVECTOR 3 26
SWIDTH1 0 -1100
DWIDTH1 0 -33
BITMAP 
FFFFC0
FFFFC0
0018C0
0018C0
0018C0
0018C0
0018C0
0018C0
0018C0
0018C0
0018C0
0018C0
0018C0
0018C0
0018C0
0018C0
ENDCHAR
STARTCHAR SF220000
ENCODING 261
SWIDTH 1000 0
DWIDTH 30 0
BBX 16 19 0 -7
VVECTOR 1 26
SWIDTH1 0 -1100
DWIDTH1 0 -33
BITMAP 
FFFF
FFFF
0003
0003
0003
FFFF
FFFF
0003
0003
0003
0003
0003
0003
0003
0003
0003
0003
0003
0003
ENDCHAR
STARTCHAR SF270000
ENCODING 262
SWIDTH 1000 0
DWIDTH 30 0
BBX 18 16 0 7
VVECTOR 3 26
SWIDTH1 0 -1100
DWIDTH1 0 -33
BITMAP 
0018C0
0018C0
0018C0
0018C0
0018C0
0018C0
0018C0
0018C0
0018C0
0018C0
0018C0
0018C0
0018C0
0018C0
FFFFC0
FFFFC0
ENDCHAR
STARTCHAR SF280000
ENCODING 263
SWIDTH 1000 0
DWIDTH 30 0
BBX 16 18 0 5
VVECTOR 1 26
SWIDTH1 0 -1100
DWIDTH1 0 -33
BITMAP 
0003
0003
0003
0003
0003
0003
0003
0003
0003
0003
0003
FFFF
FFFF
0003
0003
0003
FFFF
FFFF
ENDCHAR
STARTCHAR SF360000
ENCODING 264
SWIDTH 1000 0
DWIDTH 30 0
BBX 16 30 14 -7
VVECTOR 29 26
SWIDTH1 0 -1100
DWIDTH1 0 -33
BITMAP 
C000
C000
C000
C000
C000
C000
C000
C000
C000
C000
C000
FFFF
FFFF
C000
C000
C000
FFFF
FFFF
C000
C000
C000
C000
C000
C000
C000
C000
C000
C000
C000
C000
ENDCHAR
STARTCHAR SF370000
ENCODING 265
SWIDTH 1000 0
DWIDTH 30 0
BBX 19 30 11 -7
VVECTOR 26 26
SWIDTH1 0 -1100
DWIDTH1 0 -33
BITMAP 
C60000
C60000
C60000
C60000
C60000
C60000
C60000
C60000
C60000
C60000
C60000
C60000
C60000
C60000
C7FFE0
C7FFE0
C60000
C60000
C60000
C60000
C60000
C60000
C60000
C60000
C60000
C60000
C60000
C60000
C60000
C60000
ENDCHAR
STARTCHAR SF450000
ENCODING 266
SWIDTH 1000 0
DWIDTH 30 0
BBX 30 18 0 5
VVECTOR 15 26
SWIDTH1 0 -1100
DWIDTH1 0 -33
BITMAP 
00030000
00030000
00030000
00030000
00030000
00030000
00030000
00030000
00030000
00030000
00030000
FFFFFFFC
FFFFFFFC
00000000
00000000
00000000
FFFFFFFC
FFFFFFFC
ENDCHAR
STARTCHAR SF460000
ENCODING 267
SWIDTH 1000 0
DWIDTH 30 0
BBX 30 16 0 7
VVECTOR 15 26
SWIDTH1 0 -1100
DWIDTH1 0 -33
BITMAP 
0018C000
0018C000
0018C000
0018C000
0018C000
0018C000
0018C000
0018C000
0018C000
0018C000
0018C000
0018C000
0018C000
0018C000
FFFFFFFC
FFFFFFFC
ENDCHAR
STARTCHAR SF470000
ENCODING 268
SWIDTH 1000 0
DWIDTH 30 0
BBX 30 19 0 -7
VVECTOR 15 26
SWIDTH1 0 -1100
DWIDTH1 0 -33
BITMAP 
FFFFFFFC
FFFFFFFC
00000000
00000000
00000000
FFFFFFFC
FFFFFFFC
00030000
00030000
00030000
00030000
00030000
00030000
00030000
00030000
00030000
00030000
00030000
00030000
ENDCHAR
STARTCHAR SF480000
ENCODING 269
SWIDTH 1000 0
DWIDTH 30 0
BBX 30 16 0 -7
VVECTOR 15 26
SWIDTH1 0 -1100
DWIDTH1 0 -33
BITMAP 
FFFFFFFC
FFFFFFFC
0018C000
0018C000
0018C000
0018C000
0018C000
0018C000
0018C000
0018C000
0018C000
0018C000
0018C000
0018C000
0018C000
0018C000
ENDCHAR
STARTCHAR SF490000
ENCODING 270
SWIDTH 1000 0
DWIDTH 30 0
BBX 19 16 11 7
VVECTOR 26 26
SWIDTH1 0 -1100
DWIDTH1 0 -33
BITMAP 
C60000
C60000
C60000
C60000
C60000
C60000
C60000
C60000
C60000
C60000
C60000
C60000
C60000
C60000
FFFFE0
FFFFE0
ENDCHAR
STARTCHAR SF500000
ENCODING 271
SWIDTH 1000 0
DWIDTH 30 0
BBX 16 18 14 5
VVECTOR 29 26
SWIDTH1 0 -1100
DWIDTH1 0 -33
BITMAP 
C000
C000
C000
C000
C000
C000
C000
C000
C000
C000
C000
FFFF
FFFF
C000
C000
C000
FFFF
FFFF
ENDCHAR
STARTCHAR SF510000
ENCODING 272
SWIDTH 1000 0
DWIDTH 30 0
BBX 16 19 14 -7
VVECTOR 29 26
SWIDTH1 0 -1100
DWIDTH1 0 -33
BITMAP 
FFFF
FFFF
C000
C000
C000
FFFF
FFFF
C000
C000
C000
C000
C000
C000
C000
C000
C000
C000
C000
C000
ENDCHAR
STARTCHAR SF520000
ENCODING 273
SWIDTH 1000 0
DWIDTH 30 0
BBX 19 16 11 -7
VVECTOR 26 26
SWIDTH1 0 -1100
DWIDTH1 0 -33
BITMAP 
FFFFE0
FFFFE0
C60000
C60000
C60000
C60000
C60000
C60000
C60000
C60000
C60000
C60000
C60000
C60000
C60000
C60000
ENDCHAR
STARTCHAR SF530000
ENCODING 274
SWIDTH 1000 0
DWIDTH 30 0
BBX 30 30 0 -7
VVECTOR 15 26
SWIDTH1 0 -1100
DWIDTH1 0 -33
BITMAP 
0018C000
0018C000
0018C000
0018C000
0018C000
0018C000
0018C000
0018C000
0018C000
0018C000
0018C000
0018C000
0018C000
0018C000
FFFFFFFC
FFFFFFFC
0018C000
0018C000
0018C000
0018C000
0018C000
0018C000
0018C000
0018C000
0018C000
0018C000
0018C000
0018C000
0018C000
0018C000
ENDCHAR
STARTCHAR SF540000
ENCODING 275
SWIDTH 1000 0
DWIDTH 30 0
BBX 30 30 0 -7
VVECTOR 15 26
SWIDTH1 0 -1100
DWIDTH1 0 -33
BITMAP 
00030000
00030000
00030000
00030000
00030000
00030000
00030000
00030000
00030000
00030000
00030000
FFFFFFFC
FFFFFFFC
00030000
00030000
00030000
FFFFFFFC
FFFFFFFC
00030000
00030000
00030000
00030000
00030000
00030000
00030000
00030000
00030000
00030000
00030000
00030000
ENDCHAR
STARTCHAR lfblock
ENCODING 276
SWIDTH 1000 0
DWIDTH 30 0
BBX 15 30 0 -7
VVECTOR 0 26
SWIDTH1 0 -1100
DWIDTH1 0 -33
BITMAP 
FFFE
FFFE
FFFE
FFFE
FFFE
FFFE
FFFE
FFFE
FFFE
FFFE
FFFE
FFFE
FFFE
FFFE
FFFE
FFFE
FFFE
FFFE
FFFE
FFFE
FFFE
FFFE
FFFE
FFFE
FFFE
FFFE
FFFE
FFFE
FFFE
FFFE
ENDCHAR
STARTCHAR rtblock
ENCODING 277
SWIDTH 1000 0
DWIDTH 30 0
BBX 15 30 15 -7
VVECTOR 30 26
SWIDTH1 0 -1100
DWIDTH1 0 -33
BITMAP 
FFFE
FFFE
FFFE
FFFE
FFFE
FFFE
FFFE
FFFE
FFFE
FFFE
FFFE
FFFE
FFFE
FFFE
FFFE
FFFE
FFFE
FFFE
FFFE
FFFE
FFFE
FFFE
FFFE
FFFE
FFFE
FFFE
FFFE
FFFE
FFFE
FFFE
ENDCHAR
STARTCHAR alpha
ENCODING 278
SWIDTH 567 0
DWIDTH 17 0
BBX 16 13 1 0
VVECTOR 10 26
SWIDTH1 0 -1100
DWIDTH1 0 -33
BITMAP 
03C3
0FE3
1C63
3832
7036
7034
E03C
E038
C030
E070
E1FA
7F3E
3C18
ENDCHAR
STARTCHAR Gamma
ENCODING 279
SWIDTH 600 0
DWIDTH 18 0
BBX 16 19 1 0
VVECTOR 9 26
SWIDTH1 0 -1100
DWIDTH1 0 -33
BITMAP 
FFFF
1C0F
1C03
1C03
1C01
1C01
1C00
1C00
1C00
1C00
1C00
1C00
1C00
1C00
1C00
1C00
1C00
1C00
FF80
ENDCHAR
STARTCHAR pi
ENCODING 280
SWIDTH 667 0
DWIDTH 20 0
BBX 19 13 1 0
VVECTOR 11 26
SWIDTH1 0 -1100
DWIDTH1 0 -33
BITMAP 
1FFFE0
7FFFE0
FFFFC0
C60C00
860C00
040800
0C1800
0C1800
0C1800
1C3800
1C3800
1C3800
183000
ENDCHAR
STARTCHAR Sigma
ENCODING 281
SWIDTH 667 0
DWIDTH 20 0
BBX 19 23 1 -2
VVECTOR 11 26
SWIDTH1 0 -1100
DWIDTH1 0 -33
BITMAP 
000200
000300
FFFF00
780100
3C0180
1E0080
0F0000
078000
03C000
01E000
00F000
007800
006000
00C000
018000
030000
060060
1C0040
3FFFC0
7FFFC0
FFFF80
000080
000180
ENDCHAR
STARTCHAR sigma
ENCODING 282
SWIDTH 533 0
DWIDTH 16 0
BBX 15 13 1 0
VVECTOR 9 26
SWIDTH1 0 -1100
DWIDTH1 0 -33
BITMAP 
07FE
1FFE
387C
7030
6030
E030
C030
C070
C060
E0E0
61C0
7F80
1E00
ENDCHAR
STARTCHAR tau
ENCODING 283
SWIDTH 467 0
DWIDTH 14 0
BBX 13 13 1 0
VVECTOR 8 26
SWIDTH1 0 -1100
DWIDTH1 0 -33
BITMAP 
1FF8
7FF8
FFE0
C600
8600
0400
0C00
0C00
0C00
1C00
1C00
1C00
1800
ENDCHAR
STARTCHAR Phi
ENCODING 284
SWIDTH 767 0
DWIDTH 23 0
BBX 21 19 1 0
VVECTOR 12 26
SWIDTH1 0 -1100
DWIDTH1 0 -33
BITMAP 
03FE00
007000
007000
07FF00
1E73C0
7870F0
707070
E07038
E07038
E07038
E07038
707070
7870F0
1E73C0
07FF00
007000
007000
007000
03FE00
ENDCHAR
STARTCHAR Theta
ENCODING 285
SWIDTH 733 0
DWIDTH 22 0
BBX 19 19 2 0
VVECTOR 12 26
SWIDTH1 0 -1100
DWIDTH1 0 -33
BITMAP 
03F800
0F1E00
1C0700
380380
7001C0
7001C0
E208E0
E208E0
E3F8E0
E3F8E0
E3F8E0
E208E0
E208E0
7001C0
7001C0
380380
1C0700
0F1E00
03F800
ENDCHAR
STARTCHAR uni03A9
ENCODING 286
SWIDTH 767 0
DWIDTH 23 0
BBX 23 19 0 0
VVECTOR 12 26
SWIDTH1 0 -1100
DWIDTH1 0 -33
BITMAP 
00FE00
03C780
0701C0
0E00E0
1E00F0
1C0070
3C0078
3C0078
3C0078
3C0078
1C0070
1C0070
0E00E0
8600C2
C30186
418304
7F83FC
3FC7F8
3FC7F8
ENDCHAR
STARTCHAR delta
ENCODING 287
SWIDTH 467 0
DWIDTH 14 0
BBX 12 20 1 0
VVECTOR 7 26
SWIDTH1 0 -1100
DWIDTH1 0 -33
BITMAP 
0700
1FC0
3860
3830
3810
1E00
0F00
03C0
07E0
1C60
3870
7030
7030
E070
E070
E0E0
E0E0
61C0
7380
1E00
ENDCHAR
STARTCHAR infinity
ENCODING 288
SWIDTH 833 0
DWIDTH 25 0
BBX 18 11 4 4
VVECTOR 14 26
SWIDTH1 0 -1100
DWIDTH1 0 -33
BITMAP 
1C0E00
7E3F80
637180
C1E0C0
80E040
80C040
81C040
C1E0C0
63B180
7F1F80
1C0E00
ENDCHAR
STARTCHAR phi1
ENCODING 289
SWIDTH 633 0
DWIDTH 19 0
BBX 17 26 1 -6
VVECTOR 10 26
SWIDTH1 0 -1100
DWIDTH1 0 -33
BITMAP 
001800
003800
003800
003000
003000
007000
006000
01F800
0FFE00
1C6F00
30C380
60C380
E0C180
E0C380
C08380
E18300
E18600
791C00
3FF800
0FC000
030000
030000
020000
060000
060000
040000
ENDCHAR
STARTCHAR epsilon
ENCODING 290
SWIDTH 433 0
DWIDTH 13 0
BBX 12 13 1 0
VVECTOR 8 26
SWIDTH1 0 -1100
DWIDTH1 0 -33
BITMAP 
07F0
1FF0
3C00
7000
6000
FFC0
FFC0
E000
E000
E000
7000
7FC0
1FC0
ENDCHAR
STARTCHAR intersection
ENCODING 291
SWIDTH 833 0
DWIDTH 25 0
BBX 19 19 3 0
VVECTOR 13 26
SWIDTH1 0 -1100
DWIDTH1 0 -33
BITMAP 
03F800
0FFE00
3C0780
300180
6000C0
6000C0
C00060
C00060
C00060
C00060
C00060
C00060
C00060
C00060
C00060
C00060
C00060
C00060
C00060
ENDCHAR
STARTCHAR equivalence
ENCODING 292
SWIDTH 567 0
DWIDTH 17 0
BBX 14 12 2 1
VVECTOR 10 26
SWIDTH1 0 -1100
DWIDTH1 0 -33
BITMAP 
FFFC
FFFC
0000
0000
0000
FFFC
FFFC
0000
0000
0000
FFFC
FFFC
ENDCHAR
STARTCHAR greaterequal
ENCODING 293
SWIDTH 567 0
DWIDTH 17 0
BBX 14 17 2 0
VVECTOR 10 26
SWIDTH1 0 -1100
DWIDTH1 0 -33
BITMAP 
E000
F800
3E00
0F80
03E0
00F8
003C
00F8
03E0
0F80
3E00
F800
E000
0000
0000
FFFC
FFFC
ENDCHAR
STARTCHAR lessequal
ENCODING 294
SWIDTH 567 0
DWIDTH 17 0
BBX 14 17 2 0
VVECTOR 10 26
SWIDTH1 0 -1100
DWIDTH1 0 -33
BITMAP 
001C
007C
01F0
07C0
1F00
7C00
F000
7C00
1F00
07C0
01F0
007C
001C
0000
0000
FFFC
FFFC
ENDCHAR
STARTCHAR integraltp
ENCODING 295
SWIDTH 600 0
DWIDTH 18 0
BBX 10 30 7 -7
VVECTOR 15 26
SWIDTH1 0 -1100
DWIDTH1 0 -33
BITMAP 
0780
0BC0
1BC0
3180
3000
3000
7000
6000
6000
6000
6000
6000
E000
E000
E000
E000
E000
E000
E000
E000
E000
E000
E000
E000
E000
E000
E000
E000
E000
E000
ENDCHAR
STARTCHAR integralbt
ENCODING 296
SWIDTH 600 0
DWIDTH 18 0
BBX 10 30 0 -7
VVECTOR 1 26
SWIDTH1 0 -1100
DWIDTH1 0 -33
BITMAP 
01C0
01C0
01C0
01C0
01C0
01C0
01C0
01C0
01C0
01C0
01C0
01C0
01C0
01C0
01C0
01C0
01C0
01C0
0180
0180
0180
0180
0180
0380
0300
0300
6300
F600
F400
7800
ENDCHAR
STARTCHAR approxequal
ENCODING 297
SWIDTH 567 0
DWIDTH 17 0
BBX 15 9 1 3
VVECTOR 9 26
SWIDTH1 0 -1100
DWIDTH1 0 -33
BITMAP 
1E06
7F8E
E3FC
C0F0
0000
1E06
7F8E
E3FC
C0F0
ENDCHAR
STARTCHAR uni2219
ENCODING 298
SWIDTH 400 0
DWIDTH 12 0
BBX 8 8 2 11
VVECTOR 6 26
SWIDTH1 0 -1100
DWIDTH1 0 -33
BITMAP 
3C
7E
FF
FF
FF
FF
7E
3C
ENDCHAR
STARTCHAR radical
ENCODING 299
SWIDTH 633 0
DWIDTH 19 0
BBX 18 24 1 -1
VVECTOR 11 26
SWIDTH1 0 -1100
DWIDTH1 0 -33
BITMAP 
0003C0
000300
000200
000600
000400
000400
000C00
000800
000800
301800
F81000
381000
183000
1C2000
1C2000
0C6000
0E4000
0EC000
06C000
078000
078000
038000
030000
010000
ENDCHAR
STARTCHAR uni207F
ENCODING 300
SWIDTH 367 0
DWIDTH 11 0
BBX 9 9 1 5
VVECTOR 6 26
SWIDTH1 0 -1100
DWIDTH1 0 -33
BITMAP 
6E00
F300
6300
6300
6300
6300
6300
6300
F780
ENDCHAR
STARTCHAR uni02C9
ENCODING 301
SWIDTH 333 0
DWIDTH 10 0
BBX 8 2 1 20
VVECTOR 5 26
SWIDTH1 0 -1100
DWIDTH1 0 -33
BITMAP 
FF
FF
ENDCHAR
STARTCHAR breve
ENCODING 302
SWIDTH 333 0
DWIDTH 10 0
BBX 9 4 1 19
VVECTOR 6 26
SWIDTH1 0 -1100
DWIDTH1 0 -33
BITMAP 
8080
C180
7F00
1C00
ENDCHAR
STARTCHAR dotaccent
ENCODING 303
SWIDTH 333 0
DWIDTH 10 0
BBX 3 3 4 19
VVECTOR 6 26
SWIDTH1 0 -1100
DWIDTH1 0 -33
BITMAP 
E0
E0
E0
ENDCHAR
STARTCHAR ring
ENCODING 304
SWIDTH 333 0
DWIDTH 10 0
BBX 6 6 2 17
VVECTOR 5 26
SWIDTH1 0 -1100
DWIDTH1 0 -33
BITMAP 
78
CC
84
84
CC
78
ENDCHAR
STARTCHAR hungarumlaut
ENCODING 305
SWIDTH 333 0
DWIDTH 10 0
BBX 9 5 1 18
VVECTOR 6 26
SWIDTH1 0 -1100
DWIDTH1 0 -33
BITMAP 
1980
3B80
3300
6600
CC00
ENDCHAR
STARTCHAR ogonek
ENCODING 306
SWIDTH 333 0
DWIDTH 10 0
BBX 7 7 2 -7
VVECTOR 6 26
SWIDTH1 0 -1100
DWIDTH1 0 -33
BITMAP 
18
30
60
C0
C2
E4
78
ENDCHAR
STARTCHAR caron
ENCODING 307
SWIDTH 333 0
DWIDTH 10 0
BBX 9 5 1 18
VVECTOR 6 26
SWIDTH1 0 -1100
DWIDTH1 0 -33
BITMAP 
C180
6300
3600
1C00
0800
ENDCHAR
STARTCHAR quoteleft
ENCODING 308
SWIDTH 333 0
DWIDTH 10 0
BBX 4 8 3 15
VVECTOR 5 26
SWIDTH1 0 -1100
DWIDTH1 0 -33
BITMAP 
10
20
40
40
E0
F0
F0
60
ENDCHAR
STARTCHAR quoteright
ENCODING 309
SWIDTH 333 0
DWIDTH 10 0
BBX 4 8 3 15
VVECTOR 5 26
SWIDTH1 0 -1100
DWIDTH1 0 -33
BITMAP 
60
F0
F0
70
20
20
40
80
ENDCHAR
STARTCHAR quotedblleft
ENCODING 310
SWIDTH 433 0
DWIDTH 13 0
BBX 10 8 2 15
VVECTOR 8 26
SWIDTH1 0 -1100
DWIDTH1 0 -33
BITMAP 
1040
2080
4100
4100
E380
F3C0
F3C0
6180
ENDCHAR
STARTCHAR quotedblright
ENCODING 311
SWIDTH 433 0
DWIDTH 13 0
BBX 10 8 2 15
VVECTOR 8 26
SWIDTH1 0 -1100
DWIDTH1 0 -33
BITMAP 
6180
F3C0
F3C0
71C0
2080
2080
4100
8200
ENDCHAR
STARTCHAR endash
ENCODING 312
SWIDTH 500 0
DWIDTH 15 0
BBX 15 2 0 6
VVECTOR 8 26
SWIDTH1 0 -1100
DWIDTH1 0 -33
BITMAP 
FFFE
FFFE
ENDCHAR
STARTCHAR emdash
ENCODING 313
SWIDTH 1000 0
DWIDTH 30 0
BBX 30 2 0 6
VVECTOR 15 26
SWIDTH1 0 -1100
DWIDTH1 0 -33
BITMAP 
FFFFFFFC
FFFFFFFC
ENDCHAR
STARTCHAR uniFFE5
ENCODING 314
SWIDTH 333 0
DWIDTH 10 0
BBX 9 5 1 18
VVECTOR 6 26
SWIDTH1 0 -1100
DWIDTH1 0 -33
BITMAP 
0800
1C00
3600
6300
C180
ENDCHAR
STARTCHAR dotlessi
ENCODING 315
SWIDTH 333 0
DWIDTH 10 0
BBX 9 3 1 19
VVECTOR 6 26
SWIDTH1 0 -1100
DWIDTH1 0 -33
BITMAP 
7880
FF80
8F00
ENDCHAR
STARTCHAR quotesinglbase
ENCODING 316
SWIDTH 333 0
DWIDTH 10 0
BBX 4 8 3 -4
VVECTOR 5 26
SWIDTH1 0 -1100
DWIDTH1 0 -33
BITMAP 
60
F0
F0
70
20
20
40
80
ENDCHAR
STARTCHAR quotedblbase
ENCODING 317
SWIDTH 433 0
DWIDTH 13 0
BBX 10 8 2 -4
VVECTOR 8 26
SWIDTH1 0 -1100
DWIDTH1 0 -33
BITMAP 
6180
F3C0
F3C0
71C0
2080
2080
4100
8200
ENDCHAR
STARTCHAR ellipsis
ENCODING 318
SWIDTH 1000 0
DWIDTH 30 0
BBX 24 4 3 0
VVECTOR 15 26
SWIDTH1 0 -1100
DWIDTH1 0 -33
BITMAP 
601806
F03C0F
F03C0F
601806
ENDCHAR
STARTCHAR dagger
ENCODING 319
SWIDTH 500 0
DWIDTH 15 0
BBX 13 24 1 -5
VVECTOR 8 26
SWIDTH1 0 -1100
DWIDTH1 0 -33
BITMAP 
0700
0700
0700
0700
0200
0200
F278
FFF8
F278
0200
0200
0700
0700
0700
0700
0700
0700
0200
0200
0200
0200
0200
0200
0200
ENDCHAR
STARTCHAR daggerdbl
ENCODING 320
SWIDTH 500 0
DWIDTH 15 0
BBX 13 24 1 -5
VVECTOR 8 26
SWIDTH1 0 -1100
DWIDTH1 0 -33
BITMAP 
0700
0700
0700
0200
0200
F278
FFF8
F278
0200
0200
0700
0700
0700
0700
0200
0200
F278
FFF8
F278
0200
0200
0700
0700
0700
ENDCHAR
STARTCHAR circumflex
ENCODING 321
SWIDTH 333 0
DWIDTH 10 0
BBX 9 5 1 18
VVECTOR 6 26
SWIDTH1 0 -1100
DWIDTH1 0 -33
BITMAP 
0800
1C00
3600
6300
C180
ENDCHAR
STARTCHAR perthousand
ENCODING 322
SWIDTH 1033 0
DWIDTH 31 0
BBX 31 22 0 -1
VVECTOR 16 26
SWIDTH1 0 -1100
DWIDTH1 0 -33
BITMAP 
0000C000
07818000
1CC78000
387B0000
70460000
60460000
E0CC0000
C0980000
C1980000
C1300000
6631E03C
3C6730E6
00CE11C2
00DC1382
01981302
03383706
03302604
0630660C
0C304608
0C198330
180F01E0
10000000
ENDCHAR
STARTCHAR Scaron
ENCODING 323
SWIDTH 567 0
DWIDTH 17 0
BBX 14 26 2 0
VVECTOR 10 26
SWIDTH1 0 -1100
DWIDTH1 0 -33
BITMAP 
3060
18C0
0D80
0700
0200
0000
0000
1FC8
70F8
6038
E018
E008
F008
7800
7E00
1F80
0FC0
03F0
01F8
007C
803C
801C
C01C
E038
F870
9FC0
ENDCHAR
STARTCHAR guilsinglleft
ENCODING 324
SWIDTH 300 0
DWIDTH 9 0
BBX 6 11 1 1
VVECTOR 4 26
SWIDTH1 0 -1100
DWIDTH1 0 -33
BITMAP 
04
0C
18
30
60
E0
60
30
18
0C
04
ENDCHAR
STARTCHAR OE
ENCODING 325
SWIDTH 900 0
DWIDTH 27 0
BBX 25 19 2 0
VVECTOR 16 26
SWIDTH1 0 -1100
DWIDTH1 0 -33
BITMAP 
03FFFF00
0F1C0300
1C1C0100
381C0100
701C0000
701C0000
E01C0400
E01C0400
E01C0C00
E01FFC00
E01C0C00
E01C0400
E01C0400
701C0000
701C0080
381C0180
1C1C0300
0F1C0700
03FFFE00
ENDCHAR
STARTCHAR tilde
ENCODING 326
SWIDTH 333 0
DWIDTH 10 0
BBX 9 3 1 19
VVECTOR 6 26
SWIDTH1 0 -1100
DWIDTH1 0 -33
BITMAP 
7880
FF80
8F00
ENDCHAR
STARTCHAR trademark
ENCODING 327
SWIDTH 967 0
DWIDTH 29 0
BBX 24 11 2 8
VVECTOR 14 26
SWIDTH1 0 -1100
DWIDTH1 0 -33
BITMAP 
FFCE07
CCC70E
8C470E
8C4516
0C0596
0C0596
0C04D6
0C04E6
0C04E6
0C0446
3F0E4F
ENDCHAR
STARTCHAR scaron
ENCODING 328
SWIDTH 367 0
DWIDTH 11 0
BBX 9 20 1 0
VVECTOR 6 26
SWIDTH1 0 -1100
DWIDTH1 0 -33
BITMAP 
C180
6300
3600
1C00
0800
0000
0000
3D00
6700
C300
C100
F000
7800
1E00
0F00
8380
8180
C180
F300
9E00
ENDCHAR
STARTCHAR guilsinglright
ENCODING 329
SWIDTH 300 0
DWIDTH 9 0
BBX 6 11 2 1
VVECTOR 6 26
SWIDTH1 0 -1100
DWIDTH1 0 -33
BITMAP 
80
C0
60
30
18
1C
18
30
60
C0
80
ENDCHAR
STARTCHAR oe
ENCODING 330
SWIDTH 733 0
DWIDTH 22 0
BBX 20 13 1 0
VVECTOR 11 26
SWIDTH1 0 -1100
DWIDTH1 0 -33
BITMAP 
0F0780
39DCE0
60F060
607070
C07FF0
C06000
C06000
C06000
E06000
E07010
707830
7DBFE0
1F0F80
ENDCHAR
STARTCHAR Ydieresis
ENCODING 331
SWIDTH 700 0
DWIDTH 21 0
BBX 20 25 1 0
VVECTOR 12 26
SWIDTH1 0 -1100
DWIDTH1 0 -33
BITMAP 
01CE00
01CE00
01CE00
000000
000000
000000
FF07F0
3C00C0
1C0180
0E0100
0F0300
070200
038600
03C400
01CC00
00F800
00F800
007000
007000
007000
007000
007000
007000
007000
03FE00
ENDCHAR
STARTCHAR gbreve
ENCODING 332
SWIDTH 433 0
DWIDTH 13 0
BBX 13 25 0 -6
VVECTOR 7 26
SWIDTH1 0 -1100
DWIDTH1 0 -33
BITMAP 
2020
3060
1FC0
0700
0000
0000
0F80
31F8
20E0
6060
6060
6060
7040
38C0
1F00
2000
6000
7FC0
3FF0
2038
4018
C018
C030
E0E0
7F00
ENDCHAR
STARTCHAR Gbreve
ENCODING 333
SWIDTH 733 0
DWIDTH 22 0
BBX 20 24 2 0
VVECTOR 13 26
SWIDTH1 0 -1100
DWIDTH1 0 -33
BITMAP 
040400
060C00
03F800
00E000
000000
03F880
0F0F80
1C0380
3801C0
7000C0
700040
E00000
E00000
E00000
E00FF0
E001C0
E001C0
E001C0
7001C0
7001C0
3801C0
1C01C0
0F0780
03FE00
ENDCHAR
STARTCHAR Idotaccent
ENCODING 334
SWIDTH 333 0
DWIDTH 10 0
BBX 9 24 1 0
VVECTOR 6 26
SWIDTH1 0 -1100
DWIDTH1 0 -33
BITMAP 
1C00
1C00
1C00
0000
0000
FF80
1C00
1C00
1C00
1C00
1C00
1C00
1C00
1C00
1C00
1C00
1C00
1C00
1C00
1C00
1C00
1C00
1C00
FF80
ENDCHAR
STARTCHAR scedilla
ENCODING 335
SWIDTH 367 0
DWIDTH 11 0
BBX 9 20 1 -7
VVECTOR 6 26
SWIDTH1 0 -1100
DWIDTH1 0 -33
BITMAP 
3D00
6700
C300
C100
F000
7800
1E00
0F00
8380
8180
C180
F300
9E00
1800
1800
1E00
0300
0300
6300
3E00
ENDCHAR
STARTCHAR Scedilla
ENCODING 336
SWIDTH 567 0
DWIDTH 17 0
BBX 14 26 2 -7
VVECTOR 10 26
SWIDTH1 0 -1100
DWIDTH1 0 -33
BITMAP 
1FC8
70F8
6038
E018
E008
F008
7800
7E00
1F80
0FC0
03F0
01F8
007C
803C
801C
C01C
E038
F870
9FC0
0600
0600
0780
00C0
00C0
18C0
0F80
ENDCHAR
STARTCHAR abreve
ENCODING 337
SWIDTH 467 0
DWIDTH 14 0
BBX 12 19 1 0
VVECTOR 7 26
SWIDTH1 0 -1100
DWIDTH1 0 -33
BITMAP 
4040
60C0
3F80
0E00
0000
0000
1F00
7180
70C0
60C0
00C0
01C0
0EC0
38C0
60C0
C0C0
C0C0
E3D0
7CE0
ENDCHAR
STARTCHAR Abreve
ENCODING 338
SWIDTH 733 0
DWIDTH 22 0
BBX 21 25 1 0
VVECTOR 12 26
SWIDTH1 0 -1100
DWIDTH1 0 -33
BITMAP 
010100
018300
00FE00
003800
000000
000000
001000
003800
003800
007C00
005C00
00DC00
008E00
018E00
010700
030700
020380
060380
07FF80
0C01C0
0801C0
1800E0
1000E0
3000F0
FC03F8
ENDCHAR
STARTCHAR aogonek
ENCODING 339
SWIDTH 467 0
DWIDTH 14 0
BBX 12 20 1 -7
VVECTOR 7 26
SWIDTH1 0 -1100
DWIDTH1 0 -33
BITMAP 
1F00
7180
70C0
60C0
00C0
01C0
0EC0
38C0
60C0
C0C0
C0C0
E3D0
7CE0
00C0
00C0
03C0
0600
0600
0630
03E0
ENDCHAR
STARTCHAR Aogonek
ENCODING 340
SWIDTH 733 0
DWIDTH 22 0
BBX 21 26 1 -7
VVECTOR 12 26
SWIDTH1 0 -1100
DWIDTH1 0 -33
BITMAP 
001000
003800
003800
007C00
005C00
00DC00
008E00
018E00
010700
030700
020380
060380
07FF80
0C01C0
0801C0
1800E0
1000E0
3000F0
FC03F8
000060
000060
0001E0
000300
000300
000318
0001F0
ENDCHAR
STARTCHAR cacute
ENCODING 341
SWIDTH 433 0
DWIDTH 13 0
BBX 11 20 1 0
VVECTOR 7 26
SWIDTH1 0 -1100
DWIDTH1 0 -33
BITMAP 
00C0
01C0
0380
0600
0800
0000
0000
0F80
38E0
60E0
6060
C000
C000
C000
C000
E000
E020
7060
7FC0
1F00
ENDCHAR
STARTCHAR Cacute
ENCODING 342
SWIDTH 667 0
DWIDTH 20 0
BBX 17 25 2 0
VVECTOR 11 26
SWIDTH1 0 -1100
DWIDTH1 0 -33
BITMAP 
003000
007000
00E000
018000
020000
000000
03F100
0F1F00
1C0700
380380
700180
700080
E00000
E00000
E00000
E00000
E00000
E00000
E00000
700000
700080
380180
1C0300
0F0E00
03F800
ENDCHAR
STARTCHAR ccaron
ENCODING 343
SWIDTH 433 0
DWIDTH 13 0
BBX 11 20 1 0
VVECTOR 7 26
SWIDTH1 0 -1100
DWIDTH1 0 -33
BITMAP 
60C0
3180
1B00
0E00
0400
0000
0000
0F80
38E0
60E0
6060
C000
C000
C000
C000
E000
E020
7060
7FC0
1F00
ENDCHAR
STARTCHAR Ccaron
ENCODING 344
SWIDTH 667 0
DWIDTH 20 0
BBX 17 25 2 0
VVECTOR 11 26
SWIDTH1 0 -1100
DWIDTH1 0 -33
BITMAP 
060C00
031800
01B000
00E000
004000
000000
03F100
0F1F00
1C0700
380380
700180
700080
E00000
E00000
E00000
E00000
E00000
E00000
E00000
700000
700080
380180
1C0300
0F0E00
03F800
ENDCHAR
STARTCHAR dcaron
ENCODING 345
SWIDTH 533 0
DWIDTH 16 0
BBX 14 23 1 0
VVECTOR 8 26
SWIDTH1 0 -1100
DWIDTH1 0 -33
BITMAP 
3060
18C0
0D80
0700
0230
00F0
0030
0030
0030
0030
0F30
39F0
6070
6030
C030
C030
C030
C030
E030
E070
70F0
7FBC
1E30
ENDCHAR
STARTCHAR Dcaron
ENCODING 346
SWIDTH 733 0
DWIDTH 22 0
BBX 20 25 1 0
VVECTOR 11 26
SWIDTH1 0 -1100
DWIDTH1 0 -33
BITMAP 
0C1800
063000
036000
01C000
008000
000000
FFFC00
1C0F00
1C0380
1C01C0
1C00E0
1C00E0
1C0070
1C0070
1C0070
1C0070
1C0070
1C0070
1C0070
1C00E0
1C00E0
1C01C0
1C0380
1C0F00
FFFC00
ENDCHAR
STARTCHAR dcroat
ENCODING 347
SWIDTH 533 0
DWIDTH 16 0
BBX 14 19 1 0
VVECTOR 8 26
SWIDTH1 0 -1100
DWIDTH1 0 -33
BITMAP 
0030
00F0
0030
0030
00FC
0030
0F30
39F0
6070
6030
C030
C030
C030
C030
E030
E070
70F0
7FBC
1E30
ENDCHAR
STARTCHAR ecaron
ENCODING 348
SWIDTH 433 0
DWIDTH 13 0
BBX 11 20 1 0
VVECTOR 7 26
SWIDTH1 0 -1100
DWIDTH1 0 -33
BITMAP 
60C0
3180
1B00
0E00
0400
0000
0000
0F00
39C0
60C0
60E0
FFE0
C000
C000
C000
E000
E020
7060
7FC0
1F00
ENDCHAR
STARTCHAR Ecaron
ENCODING 349
SWIDTH 600 0
DWIDTH 18 0
BBX 17 25 1 0
VVECTOR 10 26
SWIDTH1 0 -1100
DWIDTH1 0 -33
BITMAP 
0C1800
063000
036000
01C000
008000
000000
FFFF00
1C0300
1C0100
1C0100
1C0000
1C0000
1C0400
1C0400
1C0C00
1FFC00
1C0C00
1C0400
1C0400
1C0000
1C0080
1C0180
1C0300
1C0700
FFFE00
ENDCHAR
STARTCHAR eogonek
ENCODING 350
SWIDTH 433 0
DWIDTH 13 0
BBX 11 20 1 -7
VVECTOR 7 26
SWIDTH1 0 -1100
DWIDTH1 0 -33
BITMAP 
0F00
39C0
60C0
60E0
FFE0
C000
C000
C000
E000
E020
7060
7FC0
1F00
0600
0600
1E00
3000
3000
3180
1F00
ENDCHAR
STARTCHAR Eogonek
ENCODING 351
SWIDTH 600 0
DWIDTH 18 0
BBX 17 26 1 -7
VVECTOR 10 26
SWIDTH1 0 -1100
DWIDTH1 0 -33
BITMAP 
FFFF00
1C0300
1C0100
1C0100
1C0000
1C0000
1C0400
1C0400
1C0C00
1FFC00
1C0C00
1C0400
1C0400
1C0000
1C0080
1C0180
1C0300
1C0700
FFFE00
00C000
00C000
03C000
060000
060000
063000
03E000
ENDCHAR
STARTCHAR lacute
ENCODING 352
SWIDTH 267 0
DWIDTH 8 0
BBX 6 25 1 0
VVECTOR 4 26
SWIDTH1 0 -1100
DWIDTH1 0 -33
BITMAP 
0C
1C
38
60
80
00
30
F0
30
30
30
30
30
30
30
30
30
30
30
30
30
30
30
30
FC
ENDCHAR
STARTCHAR Lacute
ENCODING 353
SWIDTH 600 0
DWIDTH 18 0
BBX 17 25 1 0
VVECTOR 10 26
SWIDTH1 0 -1100
DWIDTH1 0 -33
BITMAP 
030000
070000
0E0000
180000
200000
000000
FF8000
1C0000
1C0000
1C0000
1C0000
1C0000
1C0000
1C0000
1C0000
1C0000
1C0000
1C0000
1C0000
1C0000
1C0080
1C0180
1C0300
1C0700
FFFE00
ENDCHAR
STARTCHAR lcaron
ENCODING 354
SWIDTH 267 0
DWIDTH 8 0
BBX 7 25 0 0
VVECTOR 3 26
SWIDTH1 0 -1100
DWIDTH1 0 -33
BITMAP 
82
C6
6C
38
10
00
18
78
18
18
18
18
18
18
18
18
18
18
18
18
18
18
18
18
7E
ENDCHAR
STARTCHAR Lcaron
ENCODING 355
SWIDTH 600 0
DWIDTH 18 0
BBX 18 25 0 0
VVECTOR 9 26
SWIDTH1 0 -1100
DWIDTH1 0 -33
BITMAP 
C18000
630000
360000
1C0000
080000
000000
7FC000
0E0000
0E0000
0E0000
0E0000
0E0000
0E0000
0E0000
0E0000
0E0000
0E0000
0E0000
0E0000
0E0000
0E0040
0E00C0
0E0180
0E0380
7FFF00
ENDCHAR
STARTCHAR lslash
ENCODING 356
SWIDTH 267 0
DWIDTH 8 0
BBX 6 19 1 0
VVECTOR 4 26
SWIDTH1 0 -1100
DWIDTH1 0 -33
BITMAP 
30
F0
30
30
30
30
30
30
30
30
3C
F0
30
30
30
30
30
30
FC
ENDCHAR
STARTCHAR Lslash
ENCODING 357
SWIDTH 600 0
DWIDTH 18 0
BBX 17 19 1 0
VVECTOR 10 26
SWIDTH1 0 -1100
DWIDTH1 0 -33
BITMAP 
FF8000
1C0000
1C0000
1C0000
1C0000
1C0000
1C0000
1C0000
1C0000
1C0000
1F8000
FC0000
1C0000
1C0000
1C0080
1C0180
1C0300
1C0700
FFFE00
ENDCHAR
STARTCHAR nacute
ENCODING 358
SWIDTH 533 0
DWIDTH 16 0
BBX 14 20 1 0
VVECTOR 8 26
SWIDTH1 0 -1100
DWIDTH1 0 -33
BITMAP 
00C0
01C0
0380
0600
0800
0000
0000
31E0
F7F0
3C70
3830
3030
3030
3030
3030
3030
3030
3030
3030
FCFC
ENDCHAR
STARTCHAR Nacute
ENCODING 359
SWIDTH 700 0
DWIDTH 21 0
BBX 20 25 1 0
VVECTOR 12 26
SWIDTH1 0 -1100
DWIDTH1 0 -33
BITMAP 
001800
003800
007000
00C000
010000
000000
FC0FF0
3E0180
1F0180
1F0180
1B8180
1BC180
19C180
18E180
18F180
187980
183980
181D80
181D80
180F80
180780
180780
180380
180180
FF0080
ENDCHAR
STARTCHAR ncaron
ENCODING 360
SWIDTH 533 0
DWIDTH 16 0
BBX 14 20 1 0
VVECTOR 8 26
SWIDTH1 0 -1100
DWIDTH1 0 -33
BITMAP 
3060
18C0
0D80
0700
0200
0000
0000
31E0
F7F0
3C70
3830
3030
3030
3030
3030
3030
3030
3030
3030
FCFC
ENDCHAR
STARTCHAR Ncaron
ENCODING 361
SWIDTH 700 0
DWIDTH 21 0
BBX 20 25 1 0
VVECTOR 12 26
SWIDTH1 0 -1100
DWIDTH1 0 -33
BITMAP 
060C00
031800
01B000
00E000
004000
000000
FC0FF0
3E0180
1F0180
1F0180
1B8180
1BC180
19C180
18E180
18F180
187980
183980
181D80
181D80
180F80
180780
180780
180380
180180
FF0080
ENDCHAR
STARTCHAR ohungarumlaut
ENCODING 362
SWIDTH 500 0
DWIDTH 15 0
BBX 13 20 1 0
VVECTOR 8 26
SWIDTH1 0 -1100
DWIDTH1 0 -33
BITMAP 
0318
0738
0E70
18C0
2100
0000
0000
0FC0
39F0
6070
6038
C038
C018
C018
C018
E018
E030
7030
7CE0
1F80
ENDCHAR
STARTCHAR Ohungarumlaut
ENCODING 363
SWIDTH 733 0
DWIDTH 22 0
BBX 19 25 2 0
VVECTOR 12 26
SWIDTH1 0 -1100
DWIDTH1 0 -33
BITMAP 
006180
00E380
01C700
030C00
041000
000000
03F800
0F1E00
1C0700
380380
7001C0
7001C0
E000E0
E000E0
E000E0
E000E0
E000E0
E000E0
E000E0
7001C0
7001C0
380380
1C0700
0F1E00
03F800
ENDCHAR
STARTCHAR racute
ENCODING 364
SWIDTH 300 0
DWIDTH 9 0
BBX 8 20 1 0
VVECTOR 6 26
SWIDTH1 0 -1100
DWIDTH1 0 -33
BITMAP 
06
0E
1C
30
40
00
00
33
F7
3B
30
30
30
30
30
30
30
30
30
FC
ENDCHAR
STARTCHAR Racute
ENCODING 365
SWIDTH 667 0
DWIDTH 20 0
BBX 19 25 1 0
VVECTOR 11 26
SWIDTH1 0 -1100
DWIDTH1 0 -33
BITMAP 
003000
007000
00E000
018000
020000
000000
FFF800
1C0E00
1C0700
1C0380
1C0380
1C0380
1C0380
1C0700
1C0E00
1FF800
1C7000
1C7800
1C3C00
1C1C00
1C1E00
1C0F00
1C0700
1C0780
FF83E0
ENDCHAR
STARTCHAR rcaron
ENCODING 366
SWIDTH 300 0
DWIDTH 9 0
BBX 9 20 0 0
VVECTOR 5 26
SWIDTH1 0 -1100
DWIDTH1 0 -33
BITMAP 
C180
6300
3600
1C00
0800
0000
0000
1980
7B80
1D80
1800
1800
1800
1800
1800
1800
1800
1800
1800
7E00
ENDCHAR
STARTCHAR Rcaron
ENCODING 367
SWIDTH 667 0
DWIDTH 20 0
BBX 19 25 1 0
VVECTOR 11 26
SWIDTH1 0 -1100
DWIDTH1 0 -33
BITMAP 
0C1800
063000
036000
01C000
008000
000000
FFF800
1C0E00
1C0700
1C0380
1C0380
1C0380
1C0380
1C0700
1C0E00
1FF800
1C7000
1C7800
1C3C00
1C1C00
1C1E00
1C0F00
1C0700
1C0780
FF83E0
ENDCHAR
STARTCHAR sacute
ENCODING 368
SWIDTH 367 0
DWIDTH 11 0
BBX 9 20 1 0
VVECTOR 6 26
SWIDTH1 0 -1100
DWIDTH1 0 -33
BITMAP 
0300
0700
0E00
1800
2000
0000
0000
3D00
6700
C300
C100
F000
7800
1E00
0F00
8380
8180
C180
F300
9E00
ENDCHAR
STARTCHAR Sacute
ENCODING 369
SWIDTH 567 0
DWIDTH 17 0
BBX 14 25 2 0
VVECTOR 10 26
SWIDTH1 0 -1100
DWIDTH1 0 -33
BITMAP 
00C0
01C0
0380
0600
0800
0000
1FC8
70F8
6038
E018
E008
F008
7800
7E00
1F80
0FC0
03F0
01F8
007C
803C
801C
C01C
E038
F870
9FC0
ENDCHAR
STARTCHAR tcaron
ENCODING 370
SWIDTH 300 0
DWIDTH 9 0
BBX 9 23 0 0
VVECTOR 5 26
SWIDTH1 0 -1100
DWIDTH1 0 -33
BITMAP 
C180
6300
3600
1C00
0800
0000
0800
0800
1800
3800
7F00
1800
1800
1800
1800
1800
1800
1800
1800
1800
1800
1900
0E00
ENDCHAR
STARTCHAR Tcaron
ENCODING 371
SWIDTH 600 0
DWIDTH 18 0
BBX 17 25 1 0
VVECTOR 10 26
SWIDTH1 0 -1100
DWIDTH1 0 -33
BITMAP 
0C1800
063000
036000
01C000
008000
000000
FFFF80
E1C380
C1C180
81C080
81C080
01C000
01C000
01C000
01C000
01C000
01C000
01C000
01C000
01C000
01C000
01C000
01C000
01C000
0FF800
ENDCHAR
STARTCHAR uni0163
ENCODING 372
SWIDTH 300 0
DWIDTH 9 0
BBX 8 24 1 -7
VVECTOR 6 26
SWIDTH1 0 -1100
DWIDTH1 0 -33
BITMAP 
10
10
30
70
FE
30
30
30
30
30
30
30
30
30
30
32
1C
18
18
1E
03
03
63
3E
ENDCHAR
STARTCHAR uni0162
ENCODING 373
SWIDTH 600 0
DWIDTH 18 0
BBX 17 26 1 -7
VVECTOR 10 26
SWIDTH1 0 -1100
DWIDTH1 0 -33
BITMAP 
FFFF80
E1C380
C1C180
81C080
81C080
01C000
01C000
01C000
01C000
01C000
01C000
01C000
01C000
01C000
01C000
01C000
01C000
01C000
0FF800
00C000
00C000
00F000
001800
001800
031800
01F000
ENDCHAR
STARTCHAR uhungarumlaut
ENCODING 374
SWIDTH 533 0
DWIDTH 16 0
BBX 14 20 1 0
VVECTOR 8 26
SWIDTH1 0 -1100
DWIDTH1 0 -33
BITMAP 
030C
071C
0E38
1860
2080
0000
0000
F0F0
3030
3030
3030
3030
3030
3030
3030
3030
3070
38F0
3FBC
1E30
ENDCHAR
STARTCHAR Uhungarumlaut
ENCODING 375
SWIDTH 733 0
DWIDTH 22 0
BBX 21 25 1 0
VVECTOR 12 26
SWIDTH1 0 -1100
DWIDTH1 0 -33
BITMAP 
0030C0
0071C0
01C380
030600
040800
000000
FF87F8
1C00C0
1C00C0
1C00C0
1C00C0
1C00C0
1C00C0
1C00C0
1C00C0
1C00C0
1C00C0
1C00C0
1C00C0
1C00C0
1C00C0
0E0180
0E0180
078700
01FC00
ENDCHAR
STARTCHAR uring
ENCODING 376
SWIDTH 533 0
DWIDTH 16 0
BBX 14 21 1 0
VVECTOR 8 26
SWIDTH1 0 -1100
DWIDTH1 0 -33
BITMAP 
0F00
1980
1080
1080
1980
0F00
0000
0000
F0F0
3030
3030
3030
3030
3030
3030
3030
3030
3070
38F0
3FBC
1E30
ENDCHAR
STARTCHAR Uring
ENCODING 377
SWIDTH 733 0
DWIDTH 22 0
BBX 21 26 1 0
VVECTOR 12 26
SWIDTH1 0 -1100
DWIDTH1 0 -33
BITMAP 
007800
00CC00
008400
008400
00CC00
007800
000000
FF87F8
1C00C0
1C00C0
1C00C0
1C00C0
1C00C0
1C00C0
1C00C0
1C00C0
1C00C0
1C00C0
1C00C0
1C00C0
1C00C0
1C00C0
0E0180
0E0180
078700
01FC00
ENDCHAR
STARTCHAR zacute
ENCODING 378
SWIDTH 467 0
DWIDTH 14 0
BBX 12 20 1 0
VVECTOR 7 26
SWIDTH1 0 -1100
DWIDTH1 0 -33
BITMAP 
00C0
01C0
0380
0600
0800
0000
0000
7FF0
60E0
41C0
41C0
0380
0700
0E00
0E00
1C00
3810
7010
7030
FFF0
ENDCHAR
STARTCHAR Zacute
ENCODING 379
SWIDTH 600 0
DWIDTH 18 0
BBX 17 25 1 0
VVECTOR 10 26
SWIDTH1 0 -1100
DWIDTH1 0 -33
BITMAP 
003000
007000
00E000
018000
020000
000000
7FFF00
700E00
601E00
403C00
403800
007800
00F000
00E000
01E000
03C000
038000
078000
0F0000
0E0000
1E0080
3C0180
380300
780700
FFFE00
ENDCHAR
STARTCHAR zcaron
ENCODING 380
SWIDTH 467 0
DWIDTH 14 0
BBX 12 20 1 0
VVECTOR 7 26
SWIDTH1 0 -1100
DWIDTH1 0 -33
BITMAP 
3060
18C0
0D80
0700
0200
0000
0000
7FF0
60E0
41C0
41C0
0380
0700
0E00
0E00
1C00
3810
7010
7030
FFF0
ENDCHAR
STARTCHAR Zcaron
ENCODING 381
SWIDTH 600 0
DWIDTH 18 0
BBX 17 25 1 0
VVECTOR 10 26
SWIDTH1 0 -1100
DWIDTH1 0 -33
BITMAP 
0C1800
063000
036000
01C000
008000
000000
7FFF00
700E00
601E00
403C00
403800
007800
00F000
00E000
01E000
03C000
038000
078000
0F0000
0E0000
1E0080
3C0180
380300
780700
FFFE00
ENDCHAR
STARTCHAR zdotaccent
ENCODING 382
SWIDTH 467 0
DWIDTH 14 0
BBX 12 18 1 0
VVECTOR 7 26
SWIDTH1 0 -1100
DWIDTH1 0 -33
BITMAP 
0700
0700
0700
0000
0000
7FF0
60E0
41C0
41C0
0380
0700
0E00
0E00
1C00
3810
7010
7030
FFF0
ENDCHAR
ENDFONT
